# Blender 4.1.1
# www.blender.org
mtllib Building.mtl
o Building
v -8.000000 0.000001 8.000000
v -8.000000 40.000000 7.999997
v -8.000000 -0.000001 -8.000000
v -8.000000 40.000000 -8.000003
v 8.000000 0.000001 8.000000
v 8.000000 40.000000 7.999997
v 8.000000 -0.000001 -8.000000
v 8.000000 40.000000 -8.000003
vn -1.0000 -0.0000 -0.0000
vn -0.0000 -0.0000 -1.0000
vn 1.0000 -0.0000 -0.0000
vn -0.0000 -0.0000 1.0000
vn -0.0000 -1.0000 -0.0000
vn -0.0000 1.0000 -0.0000
vt 0.000000 0.000000
vt 0.250000 0.625000
vt -0.000000 0.625000
vt 0.500000 0.625000
vt 0.250000 -0.000000
vt 0.500000 0.000000
vt 0.750000 0.625000
vt 0.500000 -0.000000
vt 0.750000 0.000000
vt 1.000000 0.625000
vt 0.750000 -0.000000
vt 1.000000 0.000000
vt -0.000000 0.875000
vt 0.250000 0.625000
vt 0.250000 0.875000
vt 0.250000 0.875000
vt 0.500000 0.625000
vt 0.500000 0.875000
vt 0.250000 0.000000
vt 0.250000 0.625000
vt 0.750000 0.625000
vt 0.000000 0.625000
s 0
usemtl BuildingMaterial
f 2/1/1 3/2/1 1/3/1
f 4/4/2 7/5/2 3/6/2
f 8/7/3 5/8/3 7/9/3
f 6/10/4 1/11/4 5/12/4
f 7/13/5 1/14/5 3/15/5
f 4/16/6 6/17/6 8/18/6
f 2/1/1 4/19/1 3/2/1
f 4/4/2 8/20/2 7/5/2
f 8/7/3 6/17/3 5/8/3
f 6/10/4 2/21/4 1/11/4
f 7/13/5 5/22/5 1/14/5
f 4/16/6 2/20/6 6/17/6
o streetLight
v 11.930000 0.000000 0.400000
v 11.930000 20.000000 0.399998
v 11.930000 -0.000000 -0.400000
v 11.930000 20.000000 -0.400002
v 12.730000 0.000000 0.400000
v 12.730000 20.000000 0.399998
v 12.730000 -0.000000 -0.400000
v 12.730000 20.000000 -0.400002
v 12.730000 20.000000 0.399998
v 16.730000 20.000000 0.399998
v 12.730000 20.000000 -0.400002
v 16.730000 20.000000 -0.400002
v 12.730000 19.000000 0.399999
v 16.730000 19.000000 0.399999
v 12.730000 19.000000 -0.400001
v 16.730000 19.000000 -0.400001
v 14.589999 16.169998 1.000000
v 14.589999 18.169998 1.000000
v 14.589999 16.169998 -1.000000
v 14.589999 18.169998 -1.000000
v 16.590000 16.169998 1.000000
v 16.590000 18.169998 1.000000
v 16.590000 16.169998 -1.000000
v 16.590000 18.169998 -1.000000
vn -1.0000 -0.0000 -0.0000
vn -0.0000 -0.0000 -1.0000
vn 1.0000 -0.0000 -0.0000
vn -0.0000 -0.0000 1.0000
vn -0.0000 -1.0000 -0.0000
vn -0.0000 1.0000 -0.0000
vt 0.000000 0.000000
vt 0.040000 1.000000
vt -0.000000 1.000000
vt 0.120000 1.000000
vt 0.080000 0.000000
vt 0.120000 0.000000
vt 0.080000 1.000000
vt 0.040000 -0.000000
vt 0.080000 0.000000
vt 0.160000 1.000000
vt 0.120000 -0.000000
vt 0.160000 -0.000000
vt 0.260000 0.640000
vt 0.300000 0.600000
vt 0.300000 0.640000
vt 0.260000 0.680000
vt 0.300000 0.640000
vt 0.300000 0.680000
vt 0.260000 0.100000
vt 0.300000 0.300000
vt 0.260000 0.300000
vt 0.210000 0.600000
vt 0.160000 0.400000
vt 0.210000 0.400000
vt 0.300000 0.500000
vt 0.300000 0.300000
vt 0.160000 0.600000
vt 0.210000 0.800000
vt 0.160000 0.800000
vt 0.300000 0.550000
vt 0.260000 0.500000
vt 0.300000 0.500000
vt 0.300000 0.600000
vt 0.260000 0.550000
vt 0.040000 0.000000
vt 0.080000 1.000000
vt 0.040000 1.000000
vt 0.120000 1.000000
vt 0.260000 0.600000
vt 0.260000 0.640000
vt 0.300000 0.100000
vt 0.160000 0.600000
vt 0.260000 0.500000
vt 0.210000 0.600000
vt 0.260000 0.600000
vt 0.160000 0.300000
vt 0.260000 0.400000
vt 0.160000 0.400000
vt 0.260000 0.000000
vt 0.160000 0.100000
vt 0.160000 0.000000
vt 0.160000 0.800000
vt 0.260000 0.900000
vt 0.160000 0.900000
vt 0.360000 -0.000000
vt 0.260000 0.100000
vt 0.260000 -0.000000
vt 0.260000 0.200000
vt 0.160000 0.100000
vt 0.260000 0.100000
vt 0.260000 0.300000
vt 0.160000 0.200000
vt 0.260000 0.200000
vt 0.260000 0.300000
vt 0.260000 0.100000
vt 0.260000 0.800000
vt 0.360000 0.100000
vt 0.160000 0.200000
vt 0.160000 0.300000
s 0
usemtl streetLightMaterial
f 10/23/7 11/24/7 9/25/7
f 12/26/8 15/27/8 11/28/8
f 16/29/9 13/30/9 15/31/9
f 14/32/10 9/33/10 13/34/10
f 15/35/11 9/36/11 11/37/11
f 12/38/12 14/39/12 16/40/12
f 18/41/12 19/42/12 17/43/12
f 20/44/8 23/45/8 19/46/8
f 24/47/11 21/43/11 23/48/11
f 22/49/10 17/50/10 21/51/10
f 23/52/7 17/53/7 19/54/7
f 20/55/9 22/56/9 24/52/9
f 10/23/7 12/57/7 11/24/7
f 12/26/8 16/58/8 15/27/8
f 16/29/9 14/59/9 13/30/9
f 14/32/10 10/60/10 9/33/10
f 15/35/11 13/61/11 9/36/11
f 12/38/12 10/62/12 14/39/12
f 18/41/12 20/63/12 19/42/12
f 20/44/8 24/64/8 23/45/8
f 24/47/11 22/65/11 21/43/11
f 22/49/10 18/66/10 17/50/10
f 23/52/7 21/56/7 17/53/7
f 20/55/9 18/67/9 22/56/9
f 26/68/7 27/69/7 25/70/7
f 28/71/8 31/72/8 27/73/8
f 32/74/9 29/75/9 31/76/9
f 30/77/10 25/78/10 29/79/10
f 31/80/11 25/81/11 27/82/11
f 28/83/12 30/84/12 32/85/12
f 26/68/7 28/86/7 27/69/7
f 28/71/8 32/87/8 31/72/8
f 32/74/9 30/88/9 29/75/9
f 30/77/10 26/89/10 25/78/10
f 31/80/11 29/90/11 25/81/11
f 28/83/12 26/91/12 30/84/12
