# Blender 4.1.1
# www.blender.org
mtllib Oni.mtl
o Oni
v 0.000000 1.000000 -1.000000
v 1.000000 -0.000000 -1.000000
v 0.000000 -1.000000 -1.000000
v -1.000000 -0.000000 -1.000000
v 0.000000 0.000000 1.000000
v 0.307443 0.523205 -0.661296
v 0.521770 0.350000 -0.743538
v 0.342173 0.176795 -0.037933
v 0.127847 0.350000 0.044307
v 0.475192 0.850000 0.026434
v -0.307443 0.523205 -0.661297
v -0.127847 0.350000 0.044306
v -0.342173 0.176795 -0.037934
v -0.521770 0.350000 -0.743541
v -0.475192 0.850000 0.026434
vn 0.6667 0.6667 0.3333
vn 0.6667 -0.6667 0.3333
vn -0.0000 -0.0000 -1.0000
vn -0.6667 -0.6667 0.3333
vn -0.6667 0.6667 0.3333
vn 0.4382 0.7658 -0.4708
vn 0.9589 -0.2079 0.1930
vn -0.6667 -0.6667 -0.3333
vn 0.2529 -0.1415 0.9571
vn -0.8205 0.5675 -0.0695
vn 0.8205 0.5675 -0.0695
vn -0.2529 -0.1415 0.9571
vn 0.6667 -0.6667 -0.3333
vn -0.9589 -0.2079 0.1930
vn -0.4382 0.7658 -0.4708
vt 0.250000 0.490000
vt 0.250000 0.250000
vt 0.490000 0.250000
vt 0.250000 0.010000
vt 0.990000 0.250000
vt 0.510000 0.250000
vt 0.750000 0.490000
vt 0.010000 0.250000
vt 0.750000 0.010000
s 0
usemtl OniMaterial
f 1/1/1 5/2/1 2/3/1
f 2/3/2 5/2/2 3/4/2
f 2/5/3 4/6/3 1/7/3
f 3/4/4 5/2/4 4/8/4
f 4/8/5 5/2/5 1/1/5
f 6/1/6 10/2/6 7/3/6
f 7/3/7 10/2/7 8/4/7
f 6/7/8 8/9/8 9/6/8
f 8/4/9 10/2/9 9/8/9
f 9/8/10 10/2/10 6/1/10
f 11/1/11 15/2/11 12/3/11
f 12/3/12 15/2/12 13/4/12
f 11/7/13 13/9/13 14/6/13
f 13/4/14 15/2/14 14/8/14
f 14/8/15 15/2/15 11/1/15
f 2/5/3 3/9/3 4/6/3
f 6/7/8 7/5/8 8/9/8
f 11/7/13 12/5/13 13/9/13
