# Blender 4.1.1
# www.blender.org
mtllib Core.mtl
o Core
v 0.000000 0.350776 -0.234381
v 0.000000 0.234381 -0.350776
v 0.000000 0.082304 -0.413769
v 0.000000 -0.000000 -0.421875
v 0.000000 -0.082304 -0.413769
v 0.000000 -0.234381 -0.350776
v 0.016057 0.413769 -0.080722
v 0.031496 0.389762 -0.158342
v 0.045726 0.350776 -0.229878
v 0.058198 0.298311 -0.292579
v 0.068433 0.234381 -0.344036
v 0.076039 0.161445 -0.382272
v 0.080722 0.082304 -0.405818
v 0.082304 -0.000000 -0.413769
v 0.080722 -0.082304 -0.405818
v 0.076039 -0.161445 -0.382272
v 0.068433 -0.234381 -0.344036
v 0.058198 -0.298311 -0.292579
v 0.045726 -0.350776 -0.229878
v 0.031496 -0.389762 -0.158342
v 0.016057 -0.413769 -0.080722
v 0.031496 0.413769 -0.076039
v 0.061782 0.389762 -0.149155
v 0.089694 0.350776 -0.216540
v 0.114159 0.298311 -0.275603
v 0.134236 0.234381 -0.324075
v 0.149155 0.161445 -0.360093
v 0.158342 0.082304 -0.382272
v 0.161445 -0.000000 -0.389762
v 0.158342 -0.082304 -0.382272
v 0.149155 -0.161445 -0.360093
v 0.134236 -0.234381 -0.324075
v 0.114159 -0.298311 -0.275603
v 0.089694 -0.350776 -0.216540
v 0.061782 -0.389762 -0.149155
v 0.031496 -0.413769 -0.076039
v 0.045726 0.413769 -0.068433
v 0.089694 0.389762 -0.134236
v 0.130215 0.350776 -0.194881
v 0.165733 0.298311 -0.248036
v 0.194881 0.234381 -0.291660
v 0.216540 0.161445 -0.324075
v 0.229878 0.082304 -0.344036
v 0.234381 -0.000000 -0.350776
v 0.229878 -0.082304 -0.344036
v 0.216540 -0.161445 -0.324075
v 0.194881 -0.234381 -0.291660
v 0.165733 -0.298311 -0.248036
v 0.130215 -0.350776 -0.194881
v 0.089694 -0.389762 -0.134236
v 0.045726 -0.413769 -0.068433
v 0.058198 0.413769 -0.058198
v 0.114159 0.389762 -0.114159
v 0.165733 0.350776 -0.165732
v 0.210938 0.298311 -0.210938
v 0.248036 0.234381 -0.248036
v 0.275603 0.161445 -0.275603
v 0.292579 0.082304 -0.292579
v 0.298311 -0.000000 -0.298311
v 0.292579 -0.082304 -0.292579
v 0.275603 -0.161445 -0.275603
v 0.248036 -0.234381 -0.248036
v 0.210938 -0.298311 -0.210938
v 0.165733 -0.350776 -0.165732
v 0.114159 -0.389762 -0.114159
v 0.058198 -0.413769 -0.058198
v 0.068433 0.413769 -0.045725
v 0.134236 0.389762 -0.089694
v 0.194881 0.350776 -0.130215
v 0.248036 0.298311 -0.165733
v 0.291660 0.234381 -0.194881
v 0.324075 0.161445 -0.216540
v 0.344036 0.082304 -0.229878
v 0.350776 -0.000000 -0.234381
v 0.344036 -0.082304 -0.229878
v 0.324075 -0.161445 -0.216540
v 0.291660 -0.234381 -0.194881
v 0.248036 -0.298311 -0.165733
v 0.194881 -0.350776 -0.130215
v 0.134236 -0.389762 -0.089694
v 0.068433 -0.413769 -0.045725
v 0.000000 0.421875 -0.000000
v 0.076039 0.413769 -0.031496
v 0.149155 0.389762 -0.061782
v 0.216540 0.350776 -0.089694
v 0.275603 0.298311 -0.114159
v 0.324075 0.234381 -0.134236
v 0.360093 0.161445 -0.149155
v 0.382272 0.082304 -0.158342
v 0.389762 -0.000000 -0.161444
v 0.382272 -0.082304 -0.158342
v 0.360093 -0.161445 -0.149155
v 0.324075 -0.234381 -0.134236
v 0.275603 -0.298311 -0.114159
v 0.216540 -0.350776 -0.089694
v 0.149155 -0.389762 -0.061782
v 0.076039 -0.413769 -0.031496
v 0.080722 0.413769 -0.016057
v 0.158342 0.389762 -0.031496
v 0.229878 0.350776 -0.045725
v 0.292579 0.298311 -0.058198
v 0.344036 0.234381 -0.068433
v 0.382272 0.161445 -0.076039
v 0.405818 0.082304 -0.080722
v 0.413769 -0.000000 -0.082304
v 0.405818 -0.082304 -0.080722
v 0.382272 -0.161445 -0.076039
v 0.344036 -0.234381 -0.068433
v 0.292579 -0.298311 -0.058198
v 0.229878 -0.350776 -0.045725
v 0.158342 -0.389762 -0.031496
v 0.080722 -0.413769 -0.016057
v 0.082304 0.413769 -0.000000
v 0.161445 0.389762 -0.000000
v 0.234381 0.350776 -0.000000
v 0.298311 0.298311 -0.000000
v 0.350776 0.234381 -0.000000
v 0.389762 0.161445 -0.000000
v 0.413769 0.082304 -0.000000
v 0.421875 0.000000 0.000000
v 0.413769 -0.082304 0.000000
v 0.389762 -0.161445 0.000000
v 0.350776 -0.234381 0.000000
v 0.298311 -0.298311 0.000000
v 0.234381 -0.350776 0.000000
v 0.161445 -0.389762 0.000000
v 0.082304 -0.413769 0.000000
v 0.080722 0.413769 0.016057
v 0.158342 0.389762 0.031496
v 0.229878 0.350776 0.045726
v 0.292579 0.298311 0.058198
v 0.344036 0.234381 0.068433
v 0.382272 0.161445 0.076039
v 0.405818 0.082304 0.080722
v 0.413769 0.000000 0.082304
v 0.405818 -0.082304 0.080722
v 0.382272 -0.161445 0.076039
v 0.344036 -0.234381 0.068433
v 0.292579 -0.298311 0.058198
v 0.229878 -0.350776 0.045726
v 0.158342 -0.389762 0.031496
v 0.080722 -0.413769 0.016057
v 0.076039 0.413769 0.031496
v 0.149155 0.389762 0.061782
v 0.216540 0.350776 0.089694
v 0.275603 0.298311 0.114159
v 0.324075 0.234381 0.134236
v 0.360093 0.161445 0.149155
v 0.382272 0.082304 0.158342
v 0.389762 0.000000 0.161445
v 0.382272 -0.082304 0.158342
v 0.360093 -0.161445 0.149155
v 0.324075 -0.234381 0.134236
v 0.275603 -0.298311 0.114159
v 0.216540 -0.350776 0.089694
v 0.149155 -0.389762 0.061782
v 0.076039 -0.413769 0.031496
v 0.068433 0.413769 0.045725
v 0.134236 0.389762 0.089694
v 0.194881 0.350776 0.130215
v 0.248036 0.298311 0.165733
v 0.291660 0.234381 0.194881
v 0.324075 0.161445 0.216540
v 0.344036 0.082304 0.229878
v 0.350776 0.000000 0.234381
v 0.344036 -0.082304 0.229878
v 0.324075 -0.161445 0.216540
v 0.291660 -0.234381 0.194881
v 0.248036 -0.298311 0.165733
v 0.194881 -0.350776 0.130215
v 0.134236 -0.389762 0.089694
v 0.068433 -0.413769 0.045725
v 0.058197 0.413769 0.058197
v 0.114159 0.389762 0.114159
v 0.165732 0.350776 0.165733
v 0.210937 0.298311 0.210937
v 0.248036 0.234381 0.248036
v 0.275603 0.161445 0.275603
v 0.292579 0.082304 0.292579
v 0.298310 0.000000 0.298311
v 0.292579 -0.082304 0.292579
v 0.275603 -0.161445 0.275603
v 0.248036 -0.234381 0.248036
v 0.210937 -0.298311 0.210937
v 0.165732 -0.350776 0.165733
v 0.114159 -0.389762 0.114159
v 0.058197 -0.413769 0.058197
v 0.045725 0.413769 0.068433
v 0.089694 0.389762 0.134236
v 0.130215 0.350776 0.194881
v 0.165733 0.298311 0.248036
v 0.194881 0.234381 0.291660
v 0.216540 0.161445 0.324075
v 0.229878 0.082304 0.344036
v 0.234381 0.000000 0.350776
v 0.229878 -0.082304 0.344036
v 0.216540 -0.161445 0.324075
v 0.194881 -0.234381 0.291660
v 0.165733 -0.298311 0.248036
v 0.130215 -0.350776 0.194881
v 0.089694 -0.389762 0.134236
v 0.045725 -0.413769 0.068433
v 0.031496 0.413769 0.076039
v 0.061782 0.389762 0.149155
v 0.089694 0.350776 0.216540
v 0.114159 0.298311 0.275603
v 0.134236 0.234381 0.324075
v 0.149155 0.161445 0.360093
v 0.158342 0.082304 0.382272
v 0.161444 0.000000 0.389762
v 0.158342 -0.082304 0.382272
v 0.149155 -0.161445 0.360093
v 0.134236 -0.234381 0.324075
v 0.114159 -0.298311 0.275603
v 0.089694 -0.350776 0.216540
v 0.061782 -0.389762 0.149155
v 0.031496 -0.413769 0.076039
v 0.016057 0.413769 0.080722
v 0.031496 0.389762 0.158342
v 0.045725 0.350776 0.229878
v 0.058198 0.298311 0.292579
v 0.068433 0.234381 0.344036
v 0.076039 0.161445 0.382272
v 0.080722 0.082304 0.405818
v 0.082304 0.000000 0.413769
v 0.080722 -0.082304 0.405818
v 0.076039 -0.161445 0.382272
v 0.068433 -0.234381 0.344036
v 0.058198 -0.298311 0.292579
v 0.045725 -0.350776 0.229878
v 0.031496 -0.389762 0.158342
v 0.016057 -0.413769 0.080722
v 0.000000 0.413769 0.082304
v 0.000000 0.389762 0.161445
v 0.000000 0.350776 0.234381
v 0.000000 0.298311 0.298311
v 0.000000 0.234381 0.350776
v 0.000000 0.161445 0.389762
v 0.000000 0.082304 0.413769
v 0.000000 0.000000 0.421875
v 0.000000 -0.082304 0.413769
v 0.000000 -0.161445 0.389762
v 0.000000 -0.234381 0.350776
v 0.000000 -0.298311 0.298311
v 0.000000 -0.350776 0.234381
v 0.000000 -0.389762 0.161445
v 0.000000 -0.413769 0.082304
v -0.016057 0.413769 0.080722
v -0.031496 0.389762 0.158342
v -0.045726 0.350776 0.229878
v -0.058198 0.298311 0.292579
v -0.068433 0.234381 0.344036
v -0.076039 0.161445 0.382272
v -0.080722 0.082304 0.405818
v -0.082304 0.000000 0.413768
v -0.080722 -0.082304 0.405818
v -0.076039 -0.161445 0.382272
v -0.068433 -0.234381 0.344036
v -0.058198 -0.298311 0.292579
v -0.045726 -0.350776 0.229878
v -0.031496 -0.389762 0.158342
v -0.016057 -0.413769 0.080722
v -0.031496 0.413769 0.076039
v -0.061782 0.389762 0.149155
v -0.089694 0.350776 0.216540
v -0.114159 0.298311 0.275603
v -0.134236 0.234381 0.324075
v -0.149155 0.161445 0.360093
v -0.158342 0.082304 0.382272
v -0.161445 0.000000 0.389761
v -0.158342 -0.082304 0.382272
v -0.149155 -0.161445 0.360093
v -0.134236 -0.234381 0.324075
v -0.114159 -0.298311 0.275603
v -0.089694 -0.350776 0.216540
v -0.061782 -0.389762 0.149155
v -0.031496 -0.413769 0.076039
v -0.045725 0.413769 0.068433
v -0.089694 0.389762 0.134236
v -0.130215 0.350776 0.194881
v -0.165733 0.298311 0.248036
v -0.194881 0.234381 0.291660
v -0.216540 0.161445 0.324075
v -0.229878 0.082304 0.344036
v -0.234381 0.000000 0.350776
v -0.229878 -0.082304 0.344036
v -0.216540 -0.161445 0.324075
v -0.194881 -0.234381 0.291660
v -0.165733 -0.298311 0.248036
v -0.130215 -0.350776 0.194881
v -0.089694 -0.389762 0.134236
v -0.045725 -0.413769 0.068433
v -0.058197 0.413769 0.058197
v -0.114159 0.389762 0.114159
v -0.165732 0.350776 0.165732
v -0.210937 0.298311 0.210937
v -0.248036 0.234381 0.248036
v -0.275603 0.161445 0.275603
v -0.292579 0.082304 0.292579
v -0.298311 0.000000 0.298310
v -0.292579 -0.082304 0.292579
v -0.275603 -0.161445 0.275603
v -0.248036 -0.234381 0.248036
v -0.210937 -0.298311 0.210937
v -0.165732 -0.350776 0.165732
v -0.114159 -0.389762 0.114159
v -0.058197 -0.413769 0.058197
v 0.000000 -0.421875 0.000000
v -0.068433 0.413769 0.045725
v -0.134236 0.389762 0.089694
v -0.194881 0.350776 0.130215
v -0.248036 0.298311 0.165732
v -0.291660 0.234381 0.194881
v -0.324075 0.161445 0.216540
v -0.344036 0.082304 0.229877
v -0.350776 0.000000 0.234381
v -0.344036 -0.082304 0.229877
v -0.324075 -0.161445 0.216540
v -0.291660 -0.234381 0.194881
v -0.248036 -0.298311 0.165732
v -0.194881 -0.350776 0.130215
v -0.134236 -0.389762 0.089694
v -0.068433 -0.413769 0.045725
v -0.076039 0.413769 0.031496
v -0.149155 0.389762 0.061782
v -0.216540 0.350776 0.089694
v -0.275603 0.298311 0.114159
v -0.324075 0.234381 0.134236
v -0.360093 0.161445 0.149155
v -0.382272 0.082304 0.158342
v -0.389761 0.000000 0.161444
v -0.382272 -0.082304 0.158342
v -0.360093 -0.161445 0.149155
v -0.324075 -0.234381 0.134236
v -0.275603 -0.298311 0.114159
v -0.216540 -0.350776 0.089694
v -0.149155 -0.389762 0.061782
v -0.076039 -0.413769 0.031496
v -0.080722 0.413769 0.016057
v -0.158342 0.389762 0.031496
v -0.229877 0.350776 0.045725
v -0.292579 0.298311 0.058197
v -0.344036 0.234381 0.068433
v -0.382272 0.161445 0.076039
v -0.405818 0.082304 0.080722
v -0.413768 0.000000 0.082303
v -0.405818 -0.082304 0.080722
v -0.382272 -0.161445 0.076039
v -0.344036 -0.234381 0.068433
v -0.292579 -0.298311 0.058197
v -0.229877 -0.350776 0.045725
v -0.158342 -0.389762 0.031496
v -0.080722 -0.413769 0.016057
v -0.082304 0.413769 -0.000000
v -0.161444 0.389762 -0.000000
v -0.234381 0.350776 -0.000000
v -0.298311 0.298311 -0.000000
v -0.350776 0.234381 -0.000000
v -0.389762 0.161445 -0.000000
v -0.413769 0.082304 -0.000000
v -0.421875 0.000000 0.000000
v -0.413769 -0.082304 0.000000
v -0.389762 -0.161445 0.000000
v -0.350776 -0.234381 0.000000
v -0.298311 -0.298311 0.000000
v -0.234381 -0.350776 0.000000
v -0.161444 -0.389762 0.000000
v -0.082304 -0.413769 0.000000
v -0.080722 0.413769 -0.016057
v -0.158342 0.389762 -0.031496
v -0.229877 0.350776 -0.045726
v -0.292579 0.298311 -0.058198
v -0.344036 0.234381 -0.068433
v -0.382272 0.161445 -0.076039
v -0.405818 0.082304 -0.080722
v -0.413768 -0.000000 -0.082304
v -0.405818 -0.082304 -0.080722
v -0.382272 -0.161445 -0.076039
v -0.344036 -0.234381 -0.068433
v -0.292579 -0.298311 -0.058198
v -0.229877 -0.350776 -0.045726
v -0.158342 -0.389762 -0.031496
v -0.080722 -0.413769 -0.016057
v -0.076039 0.413769 -0.031496
v -0.149155 0.389762 -0.061782
v -0.216540 0.350776 -0.089694
v -0.275603 0.298311 -0.114159
v -0.324075 0.234381 -0.134236
v -0.360093 0.161445 -0.149155
v -0.382272 0.082304 -0.158342
v -0.389761 -0.000000 -0.161445
v -0.382272 -0.082304 -0.158342
v -0.360093 -0.161445 -0.149155
v -0.324075 -0.234381 -0.134236
v -0.275603 -0.298311 -0.114159
v -0.216540 -0.350776 -0.089694
v -0.149155 -0.389762 -0.061782
v -0.076039 -0.413769 -0.031496
v -0.068433 0.413769 -0.045725
v -0.134236 0.389762 -0.089694
v -0.194881 0.350776 -0.130215
v -0.248036 0.298311 -0.165732
v -0.291660 0.234381 -0.194881
v -0.324075 0.161445 -0.216540
v -0.344036 0.082304 -0.229878
v -0.350776 -0.000000 -0.234381
v -0.344036 -0.082304 -0.229878
v -0.324075 -0.161445 -0.216540
v -0.291660 -0.234381 -0.194881
v -0.248036 -0.298311 -0.165732
v -0.194881 -0.350776 -0.130215
v -0.134236 -0.389762 -0.089694
v -0.068433 -0.413769 -0.045725
v -0.058197 0.413769 -0.058197
v -0.114158 0.389762 -0.114159
v -0.165732 0.350776 -0.165732
v -0.210937 0.298311 -0.210937
v -0.248036 0.234381 -0.248036
v -0.275603 0.161445 -0.275603
v -0.292578 0.082304 -0.292579
v -0.298310 -0.000000 -0.298311
v -0.292578 -0.082304 -0.292579
v -0.275603 -0.161445 -0.275603
v -0.248036 -0.234381 -0.248036
v -0.210937 -0.298311 -0.210937
v -0.165732 -0.350776 -0.165732
v -0.114158 -0.389762 -0.114159
v -0.058197 -0.413769 -0.058197
v -0.045725 0.413769 -0.068433
v -0.089694 0.389762 -0.134236
v -0.130215 0.350776 -0.194881
v -0.165732 0.298311 -0.248036
v -0.194881 0.234381 -0.291660
v -0.216540 0.161445 -0.324075
v -0.229877 0.082304 -0.344036
v -0.234381 -0.000000 -0.350776
v -0.229877 -0.082304 -0.344036
v -0.216540 -0.161445 -0.324075
v -0.194881 -0.234381 -0.291660
v -0.165732 -0.298311 -0.248036
v -0.130215 -0.350776 -0.194881
v -0.089694 -0.389762 -0.134236
v -0.045725 -0.413769 -0.068433
v -0.031496 0.413769 -0.076039
v -0.061782 0.389762 -0.149155
v -0.089694 0.350776 -0.216540
v -0.114158 0.298311 -0.275603
v -0.134236 0.234381 -0.324075
v -0.149155 0.161445 -0.360093
v -0.158342 0.082304 -0.382272
v -0.161444 -0.000000 -0.389761
v -0.158342 -0.082304 -0.382272
v -0.149155 -0.161445 -0.360093
v -0.134236 -0.234381 -0.324075
v -0.114158 -0.298311 -0.275603
v -0.089694 -0.350776 -0.216540
v -0.061782 -0.389762 -0.149155
v -0.031496 -0.413769 -0.076039
v -0.016057 0.413769 -0.080722
v -0.031496 0.389762 -0.158342
v -0.045725 0.350776 -0.229877
v -0.058197 0.298311 -0.292579
v -0.068433 0.234381 -0.344036
v -0.076039 0.161445 -0.382272
v -0.080722 0.082304 -0.405818
v -0.082303 -0.000000 -0.413768
v -0.080722 -0.082304 -0.405818
v -0.076039 -0.161445 -0.382272
v -0.068433 -0.234381 -0.344036
v -0.058197 -0.298311 -0.292579
v -0.045725 -0.350776 -0.229877
v -0.031496 -0.389762 -0.158342
v -0.016057 -0.413769 -0.080722
v 0.000000 0.413769 -0.082304
v 0.000000 0.389762 -0.161444
v 0.000000 0.298311 -0.298311
v 0.000000 0.161445 -0.389761
v 0.000000 -0.161445 -0.389761
v 0.000000 -0.298311 -0.298311
v 0.000000 -0.350776 -0.234381
v 0.000000 -0.389762 -0.161444
v 0.000000 -0.413769 -0.082304
vn 0.0976 -0.0975 -0.9904
vn 0.0286 0.9565 -0.2902
vn 0.0938 -0.2890 -0.9527
vn 0.0464 0.8810 -0.4709
vn 0.0865 -0.4696 -0.8786
vn 0.0624 0.7715 -0.6332
vn 0.0759 -0.6326 -0.7708
vn 0.0759 0.6326 -0.7708
vn 0.0624 -0.7715 -0.6332
vn 0.0865 0.4696 -0.8786
vn 0.0464 -0.8810 -0.4709
vn 0.0938 0.2890 -0.9527
vn 0.0286 -0.9565 -0.2902
vn 0.0975 0.0975 -0.9904
vn 0.0097 0.9951 -0.0980
vn 0.0097 -0.9951 -0.0980
vn 0.0846 -0.9565 -0.2790
vn 0.2889 0.0976 -0.9524
vn 0.0286 0.9951 -0.0942
vn 0.0286 -0.9951 -0.0942
vn 0.2889 -0.0976 -0.9524
vn 0.0846 0.9565 -0.2790
vn 0.2779 -0.2890 -0.9161
vn 0.1374 0.8810 -0.4528
vn 0.2563 -0.4696 -0.8448
vn 0.1847 0.7715 -0.6088
vn 0.2248 -0.6326 -0.7412
vn 0.2248 0.6326 -0.7412
vn 0.1847 -0.7715 -0.6088
vn 0.2563 0.4696 -0.8448
vn 0.1374 -0.8810 -0.4528
vn 0.2779 0.2890 -0.9161
vn 0.3651 -0.6326 -0.6831
vn 0.3651 0.6326 -0.6831
vn 0.2999 -0.7715 -0.5611
vn 0.4162 0.4696 -0.7786
vn 0.2230 -0.8810 -0.4173
vn 0.4513 0.2890 -0.8443
vn 0.1374 -0.9566 -0.2571
vn 0.4692 0.0975 -0.8777
vn 0.0464 0.9951 -0.0869
vn 0.0464 -0.9951 -0.0869
vn 0.4691 -0.0976 -0.8777
vn 0.1374 0.9565 -0.2571
vn 0.4513 -0.2890 -0.8443
vn 0.2231 0.8810 -0.4173
vn 0.4162 -0.4696 -0.7786
vn 0.2999 0.7715 -0.5611
vn 0.0625 0.9951 -0.0761
vn 0.0625 -0.9951 -0.0761
vn 0.6314 -0.0975 -0.7693
vn 0.1850 0.9565 -0.2254
vn 0.6073 -0.2890 -0.7400
vn 0.3002 0.8810 -0.3658
vn 0.5601 -0.4696 -0.6825
vn 0.4036 0.7715 -0.4918
vn 0.4913 -0.6326 -0.5987
vn 0.4914 0.6326 -0.5987
vn 0.4036 -0.7715 -0.4918
vn 0.5601 0.4696 -0.6825
vn 0.3002 -0.8810 -0.3658
vn 0.6073 0.2890 -0.7400
vn 0.1850 -0.9565 -0.2254
vn 0.6314 0.0976 -0.7693
vn 0.5987 0.6326 -0.4914
vn 0.4918 -0.7715 -0.4036
vn 0.6825 0.4696 -0.5601
vn 0.3658 -0.8810 -0.3002
vn 0.7400 0.2890 -0.6073
vn 0.2254 -0.9565 -0.1850
vn 0.7693 0.0975 -0.6314
vn 0.0761 0.9951 -0.0625
vn 0.0761 -0.9951 -0.0625
vn 0.7693 -0.0975 -0.6314
vn 0.2254 0.9566 -0.1850
vn 0.7400 -0.2890 -0.6073
vn 0.3658 0.8810 -0.3002
vn 0.6825 -0.4696 -0.5601
vn 0.4918 0.7715 -0.4036
vn 0.5987 -0.6326 -0.4913
vn 0.8777 -0.0975 -0.4691
vn 0.2571 0.9565 -0.1374
vn 0.8443 -0.2890 -0.4513
vn 0.4173 0.8810 -0.2231
vn 0.7786 -0.4696 -0.4162
vn 0.5611 0.7715 -0.2999
vn 0.6831 -0.6326 -0.3651
vn 0.6831 0.6326 -0.3651
vn 0.5611 -0.7715 -0.2999
vn 0.7786 0.4696 -0.4162
vn 0.4173 -0.8810 -0.2230
vn 0.8443 0.2890 -0.4513
vn 0.2571 -0.9565 -0.1375
vn 0.8777 0.0976 -0.4692
vn 0.0869 0.9951 -0.0464
vn 0.0869 -0.9951 -0.0464
vn 0.6088 -0.7715 -0.1847
vn 0.8448 0.4696 -0.2563
vn 0.4528 -0.8810 -0.1374
vn 0.9161 0.2890 -0.2779
vn 0.2790 -0.9565 -0.0846
vn 0.9524 0.0976 -0.2889
vn 0.0942 0.9951 -0.0286
vn 0.0942 -0.9951 -0.0286
vn 0.9524 -0.0976 -0.2889
vn 0.2790 0.9565 -0.0846
vn 0.9161 -0.2890 -0.2779
vn 0.4528 0.8810 -0.1374
vn 0.8448 -0.4696 -0.2563
vn 0.6088 0.7715 -0.1847
vn 0.7412 -0.6326 -0.2248
vn 0.7412 0.6326 -0.2248
vn 0.2902 0.9565 -0.0286
vn 0.9527 -0.2890 -0.0938
vn 0.4709 0.8810 -0.0464
vn 0.8786 -0.4696 -0.0865
vn 0.6332 0.7715 -0.0624
vn 0.7708 -0.6326 -0.0759
vn 0.7708 0.6326 -0.0759
vn 0.6332 -0.7715 -0.0624
vn 0.8786 0.4696 -0.0865
vn 0.4709 -0.8810 -0.0464
vn 0.9527 0.2890 -0.0938
vn 0.2902 -0.9565 -0.0286
vn 0.9904 0.0975 -0.0975
vn 0.0980 0.9951 -0.0097
vn 0.0980 -0.9951 -0.0097
vn 0.9904 -0.0976 -0.0976
vn 0.8786 0.4696 0.0865
vn 0.4709 -0.8810 0.0464
vn 0.9527 0.2890 0.0938
vn 0.2902 -0.9565 0.0286
vn 0.9904 0.0976 0.0975
vn 0.0980 0.9951 0.0097
vn 0.0980 -0.9951 0.0097
vn 0.9904 -0.0975 0.0976
vn 0.2902 0.9565 0.0286
vn 0.9527 -0.2890 0.0938
vn 0.4709 0.8810 0.0464
vn 0.8786 -0.4696 0.0865
vn 0.6332 0.7715 0.0624
vn 0.7708 -0.6326 0.0759
vn 0.7708 0.6326 0.0759
vn 0.6332 -0.7715 0.0624
vn 0.9161 -0.2890 0.2779
vn 0.4528 0.8810 0.1374
vn 0.8448 -0.4696 0.2563
vn 0.6088 0.7715 0.1847
vn 0.7412 -0.6326 0.2248
vn 0.7412 0.6326 0.2248
vn 0.6088 -0.7715 0.1847
vn 0.8448 0.4696 0.2563
vn 0.4528 -0.8810 0.1374
vn 0.9161 0.2890 0.2779
vn 0.2790 -0.9565 0.0846
vn 0.9524 0.0976 0.2889
vn 0.0942 0.9951 0.0286
vn 0.0942 -0.9951 0.0286
vn 0.9524 -0.0976 0.2889
vn 0.2790 0.9565 0.0846
vn 0.4173 -0.8810 0.2230
vn 0.8443 0.2890 0.4513
vn 0.2571 -0.9566 0.1374
vn 0.8777 0.0975 0.4692
vn 0.0869 0.9951 0.0464
vn 0.0869 -0.9951 0.0464
vn 0.8777 -0.0976 0.4691
vn 0.2571 0.9565 0.1374
vn 0.8443 -0.2890 0.4513
vn 0.4173 0.8810 0.2231
vn 0.7786 -0.4696 0.4162
vn 0.5611 0.7715 0.2999
vn 0.6831 -0.6326 0.3651
vn 0.6831 0.6326 0.3651
vn 0.5611 -0.7715 0.2999
vn 0.7786 0.4696 0.4162
vn 0.6825 -0.4696 0.5601
vn 0.4918 0.7715 0.4036
vn 0.5987 -0.6326 0.4914
vn 0.5987 0.6326 0.4913
vn 0.4918 -0.7715 0.4036
vn 0.6825 0.4696 0.5601
vn 0.3658 -0.8810 0.3002
vn 0.7400 0.2890 0.6073
vn 0.2254 -0.9566 0.1850
vn 0.7693 0.0975 0.6314
vn 0.0761 0.9951 0.0625
vn 0.0761 -0.9951 0.0625
vn 0.7693 -0.0975 0.6314
vn 0.2254 0.9566 0.1850
vn 0.7400 -0.2890 0.6073
vn 0.3658 0.8810 0.3002
vn 0.1850 -0.9566 0.2254
vn 0.6314 0.0975 0.7693
vn 0.0625 0.9951 0.0761
vn 0.0625 -0.9951 0.0761
vn 0.6314 -0.0975 0.7693
vn 0.1850 0.9566 0.2254
vn 0.6073 -0.2890 0.7400
vn 0.3002 0.8810 0.3658
vn 0.5601 -0.4696 0.6825
vn 0.4036 0.7715 0.4918
vn 0.4914 -0.6326 0.5987
vn 0.4914 0.6326 0.5987
vn 0.4036 -0.7715 0.4918
vn 0.5601 0.4696 0.6825
vn 0.3002 -0.8810 0.3658
vn 0.6073 0.2890 0.7400
vn 0.2999 0.7715 0.5611
vn 0.3651 -0.6326 0.6831
vn 0.3651 0.6326 0.6831
vn 0.2999 -0.7715 0.5611
vn 0.4162 0.4696 0.7786
vn 0.2230 -0.8810 0.4173
vn 0.4513 0.2890 0.8443
vn 0.1375 -0.9565 0.2571
vn 0.4692 0.0976 0.8777
vn 0.0464 0.9951 0.0869
vn 0.0464 -0.9951 0.0869
vn 0.4691 -0.0975 0.8777
vn 0.1374 0.9565 0.2571
vn 0.4513 -0.2890 0.8443
vn 0.2231 0.8810 0.4173
vn 0.4162 -0.4696 0.7786
vn 0.2889 0.0976 0.9524
vn 0.0286 0.9951 0.0942
vn 0.0286 -0.9951 0.0942
vn 0.2889 -0.0976 0.9524
vn 0.0846 0.9565 0.2790
vn 0.2779 -0.2890 0.9161
vn 0.1374 0.8810 0.4528
vn 0.2563 -0.4696 0.8448
vn 0.1847 0.7715 0.6088
vn 0.2248 -0.6326 0.7412
vn 0.2248 0.6326 0.7412
vn 0.1847 -0.7715 0.6088
vn 0.2563 0.4696 0.8448
vn 0.1374 -0.8810 0.4528
vn 0.2779 0.2890 0.9161
vn 0.0846 -0.9565 0.2790
vn 0.0759 -0.6326 0.7708
vn 0.0759 0.6326 0.7708
vn 0.0624 -0.7715 0.6332
vn 0.0865 0.4696 0.8786
vn 0.0464 -0.8810 0.4709
vn 0.0938 0.2890 0.9527
vn 0.0286 -0.9566 0.2902
vn 0.0975 0.0975 0.9904
vn 0.0097 0.9951 0.0980
vn 0.0097 -0.9951 0.0980
vn 0.0976 -0.0976 0.9904
vn 0.0286 0.9565 0.2902
vn 0.0938 -0.2890 0.9527
vn 0.0464 0.8810 0.4709
vn 0.0865 -0.4696 0.8786
vn 0.0624 0.7715 0.6332
vn -0.0097 0.9951 0.0980
vn -0.0097 -0.9951 0.0980
vn -0.0976 -0.0975 0.9904
vn -0.0286 0.9565 0.2902
vn -0.0938 -0.2890 0.9527
vn -0.0464 0.8810 0.4709
vn -0.0865 -0.4696 0.8786
vn -0.0624 0.7715 0.6332
vn -0.0759 -0.6326 0.7708
vn -0.0759 0.6326 0.7708
vn -0.0624 -0.7715 0.6332
vn -0.0865 0.4696 0.8786
vn -0.0464 -0.8810 0.4709
vn -0.0938 0.2890 0.9527
vn -0.0286 -0.9566 0.2902
vn -0.0976 0.0975 0.9904
vn -0.2248 0.6326 0.7412
vn -0.1847 -0.7715 0.6088
vn -0.2563 0.4696 0.8448
vn -0.1374 -0.8810 0.4528
vn -0.2779 0.2890 0.9161
vn -0.0846 -0.9565 0.2790
vn -0.2889 0.0976 0.9524
vn -0.0286 0.9951 0.0942
vn -0.0286 -0.9951 0.0942
vn -0.2889 -0.0975 0.9524
vn -0.0846 0.9565 0.2790
vn -0.2779 -0.2890 0.9161
vn -0.1374 0.8810 0.4528
vn -0.2563 -0.4696 0.8448
vn -0.1847 0.7715 0.6088
vn -0.2248 -0.6326 0.7412
vn -0.4691 -0.0976 0.8777
vn -0.1374 0.9565 0.2571
vn -0.4513 -0.2890 0.8443
vn -0.2231 0.8810 0.4173
vn -0.4162 -0.4696 0.7786
vn -0.2999 0.7715 0.5611
vn -0.3651 -0.6326 0.6831
vn -0.3651 0.6326 0.6831
vn -0.2999 -0.7715 0.5611
vn -0.4162 0.4696 0.7786
vn -0.2230 -0.8810 0.4173
vn -0.4513 0.2890 0.8443
vn -0.1375 -0.9565 0.2571
vn -0.4691 0.0975 0.8777
vn -0.0464 0.9951 0.0869
vn -0.0464 -0.9951 0.0869
vn -0.4036 -0.7715 0.4918
vn -0.5601 0.4696 0.6825
vn -0.3002 -0.8810 0.3658
vn -0.6073 0.2890 0.7400
vn -0.1850 -0.9566 0.2254
vn -0.6314 0.0975 0.7693
vn -0.0625 0.9951 0.0761
vn -0.0625 -0.9951 0.0761
vn -0.6314 -0.0975 0.7693
vn -0.1850 0.9566 0.2254
vn -0.6073 -0.2890 0.7400
vn -0.3002 0.8810 0.3658
vn -0.5601 -0.4696 0.6825
vn -0.4036 0.7715 0.4918
vn -0.4914 -0.6326 0.5987
vn -0.4913 0.6326 0.5987
vn -0.7400 -0.2890 0.6073
vn -0.3658 0.8810 0.3002
vn -0.6825 -0.4696 0.5601
vn -0.4918 0.7715 0.4036
vn -0.5987 -0.6326 0.4913
vn -0.5987 0.6326 0.4913
vn -0.4918 -0.7715 0.4036
vn -0.6825 0.4696 0.5601
vn -0.3658 -0.8810 0.3002
vn -0.7400 0.2890 0.6073
vn -0.2254 -0.9566 0.1850
vn -0.7693 0.0976 0.6314
vn -0.0761 0.9951 0.0625
vn -0.0761 -0.9951 0.0625
vn -0.7693 -0.0975 0.6314
vn -0.2254 0.9566 0.1850
vn -0.4173 -0.8810 0.2230
vn -0.8443 0.2890 0.4513
vn -0.2571 -0.9565 0.1375
vn -0.8777 0.0975 0.4691
vn -0.0869 0.9951 0.0464
vn -0.0869 -0.9951 0.0464
vn -0.8777 -0.0976 0.4691
vn -0.2571 0.9565 0.1374
vn -0.8443 -0.2890 0.4513
vn -0.4173 0.8810 0.2231
vn -0.7786 -0.4696 0.4162
vn -0.5611 0.7715 0.2999
vn -0.6831 -0.6326 0.3651
vn -0.6831 0.6326 0.3651
vn -0.5611 -0.7715 0.2999
vn -0.7786 0.4696 0.4162
vn -0.4528 0.8810 0.1373
vn -0.8448 -0.4696 0.2563
vn -0.6088 0.7715 0.1847
vn -0.7412 -0.6326 0.2248
vn -0.7412 0.6326 0.2248
vn -0.6088 -0.7715 0.1847
vn -0.8448 0.4696 0.2563
vn -0.4528 -0.8810 0.1374
vn -0.9161 0.2890 0.2779
vn -0.2790 -0.9565 0.0846
vn -0.9524 0.0975 0.2889
vn -0.0942 0.9951 0.0286
vn -0.0942 -0.9951 0.0286
vn -0.9524 -0.0975 0.2889
vn -0.2790 0.9565 0.0846
vn -0.9161 -0.2890 0.2779
vn -0.9527 0.2890 0.0938
vn -0.2902 -0.9565 0.0286
vn -0.9904 0.0975 0.0976
vn -0.0980 0.9951 0.0097
vn -0.0980 -0.9951 0.0097
vn -0.9904 -0.0975 0.0976
vn -0.2902 0.9565 0.0286
vn -0.9527 -0.2890 0.0938
vn -0.4709 0.8810 0.0464
vn -0.8786 -0.4696 0.0865
vn -0.6331 0.7715 0.0624
vn -0.7708 -0.6326 0.0759
vn -0.7708 0.6326 0.0759
vn -0.6332 -0.7715 0.0624
vn -0.8786 0.4696 0.0865
vn -0.4709 -0.8810 0.0464
vn -0.8786 -0.4696 -0.0865
vn -0.6332 0.7715 -0.0624
vn -0.7708 -0.6326 -0.0759
vn -0.7708 0.6326 -0.0759
vn -0.6331 -0.7715 -0.0624
vn -0.8786 0.4696 -0.0865
vn -0.4709 -0.8810 -0.0464
vn -0.9527 0.2890 -0.0938
vn -0.2902 -0.9565 -0.0286
vn -0.9904 0.0975 -0.0976
vn -0.0980 0.9951 -0.0097
vn -0.0980 -0.9951 -0.0097
vn -0.9904 -0.0975 -0.0976
vn -0.2902 0.9565 -0.0286
vn -0.9527 -0.2890 -0.0938
vn -0.4709 0.8810 -0.0464
vn -0.2790 -0.9565 -0.0846
vn -0.9524 0.0976 -0.2889
vn -0.0942 0.9951 -0.0286
vn -0.0942 -0.9951 -0.0286
vn -0.9524 -0.0975 -0.2889
vn -0.2790 0.9565 -0.0846
vn -0.9161 -0.2890 -0.2779
vn -0.4528 0.8810 -0.1373
vn -0.8448 -0.4696 -0.2563
vn -0.6088 0.7715 -0.1847
vn -0.7412 -0.6326 -0.2248
vn -0.7412 0.6326 -0.2248
vn -0.6088 -0.7715 -0.1847
vn -0.8448 0.4696 -0.2563
vn -0.4528 -0.8810 -0.1374
vn -0.9161 0.2890 -0.2779
vn -0.5611 0.7715 -0.2999
vn -0.6831 -0.6326 -0.3651
vn -0.6831 0.6326 -0.3651
vn -0.5611 -0.7715 -0.2999
vn -0.7786 0.4696 -0.4162
vn -0.4173 -0.8810 -0.2230
vn -0.8443 0.2890 -0.4513
vn -0.2571 -0.9566 -0.1374
vn -0.8777 0.0975 -0.4691
vn -0.0869 0.9951 -0.0464
vn -0.0869 -0.9951 -0.0464
vn -0.8777 -0.0976 -0.4691
vn -0.2571 0.9565 -0.1374
vn -0.8443 -0.2890 -0.4513
vn -0.4173 0.8810 -0.2231
vn -0.7786 -0.4696 -0.4162
vn -0.7693 0.0976 -0.6314
vn -0.0761 0.9951 -0.0625
vn -0.0761 -0.9951 -0.0625
vn -0.7693 -0.0975 -0.6314
vn -0.2254 0.9566 -0.1850
vn -0.7400 -0.2890 -0.6073
vn -0.3658 0.8810 -0.3002
vn -0.6825 -0.4696 -0.5601
vn -0.4918 0.7715 -0.4036
vn -0.5987 -0.6326 -0.4913
vn -0.5987 0.6326 -0.4913
vn -0.4918 -0.7715 -0.4036
vn -0.6825 0.4696 -0.5601
vn -0.3658 -0.8810 -0.3002
vn -0.7400 0.2890 -0.6073
vn -0.2254 -0.9565 -0.1850
vn -0.4913 -0.6326 -0.5987
vn -0.4913 0.6326 -0.5987
vn -0.4036 -0.7715 -0.4918
vn -0.5601 0.4696 -0.6825
vn -0.3002 -0.8810 -0.3658
vn -0.6073 0.2890 -0.7400
vn -0.1850 -0.9566 -0.2254
vn -0.6314 0.0976 -0.7693
vn -0.0625 0.9951 -0.0761
vn -0.0625 -0.9951 -0.0761
vn -0.6314 -0.0976 -0.7693
vn -0.1850 0.9566 -0.2254
vn -0.6073 -0.2890 -0.7400
vn -0.3002 0.8810 -0.3658
vn -0.5601 -0.4696 -0.6825
vn -0.4036 0.7715 -0.4918
vn -0.0464 -0.9951 -0.0869
vn -0.4691 -0.0976 -0.8777
vn -0.1374 0.9565 -0.2571
vn -0.4513 -0.2890 -0.8443
vn -0.2231 0.8810 -0.4173
vn -0.4162 -0.4696 -0.7786
vn -0.2999 0.7715 -0.5611
vn -0.3651 -0.6326 -0.6831
vn -0.3651 0.6326 -0.6831
vn -0.2999 -0.7715 -0.5611
vn -0.4162 0.4696 -0.7786
vn -0.2230 -0.8810 -0.4173
vn -0.4513 0.2890 -0.8443
vn -0.1375 -0.9566 -0.2571
vn -0.4691 0.0975 -0.8777
vn -0.0464 0.9951 -0.0869
vn -0.1847 -0.7715 -0.6088
vn -0.2563 0.4696 -0.8448
vn -0.1374 -0.8810 -0.4528
vn -0.2779 0.2890 -0.9161
vn -0.0846 -0.9565 -0.2790
vn -0.2889 0.0975 -0.9524
vn -0.0286 0.9951 -0.0942
vn -0.0286 -0.9951 -0.0942
vn -0.2889 -0.0975 -0.9524
vn -0.0846 0.9565 -0.2790
vn -0.2779 -0.2890 -0.9161
vn -0.1373 0.8810 -0.4528
vn -0.2563 -0.4696 -0.8448
vn -0.1847 0.7715 -0.6088
vn -0.2248 -0.6326 -0.7412
vn -0.2248 0.6326 -0.7412
vn -0.0286 0.9565 -0.2902
vn -0.0938 -0.2890 -0.9527
vn -0.0464 0.8810 -0.4709
vn -0.0865 -0.4696 -0.8786
vn -0.0624 0.7715 -0.6332
vn -0.0759 -0.6326 -0.7708
vn -0.0759 0.6326 -0.7708
vn -0.0624 -0.7715 -0.6332
vn -0.0865 0.4696 -0.8786
vn -0.0464 -0.8810 -0.4709
vn -0.0938 0.2890 -0.9527
vn -0.0286 -0.9566 -0.2902
vn -0.0976 0.0975 -0.9904
vn -0.0097 0.9951 -0.0980
vn -0.0097 -0.9951 -0.0980
vn -0.0976 -0.0975 -0.9904
vn 0.0975 -0.0976 -0.9904
vn 0.0976 0.0976 -0.9904
vn 0.2231 -0.8810 -0.4173
vn 0.1374 -0.9565 -0.2571
vn 0.4691 0.0976 -0.8777
vn 0.4692 -0.0975 -0.8777
vn 0.1374 0.9566 -0.2571
vn 0.2230 0.8810 -0.4173
vn 0.6314 -0.0976 -0.7693
vn 0.4914 -0.6326 -0.5987
vn 0.4913 0.6326 -0.5987
vn 0.6314 0.0975 -0.7693
vn 0.5987 0.6326 -0.4913
vn 0.2254 -0.9566 -0.1850
vn 0.2254 0.9565 -0.1850
vn 0.5987 -0.6326 -0.4914
vn 0.8777 -0.0976 -0.4692
vn 0.2571 0.9565 -0.1375
vn 0.4173 0.8810 -0.2230
vn 0.4173 -0.8810 -0.2231
vn 0.2571 -0.9565 -0.1374
vn 0.8777 0.0975 -0.4691
vn 0.9904 0.0976 -0.0976
vn 0.9904 -0.0975 -0.0975
vn 0.9904 0.0975 0.0976
vn 0.9904 -0.0976 0.0975
vn 0.4173 -0.8810 0.2231
vn 0.2571 -0.9565 0.1374
vn 0.8777 0.0976 0.4691
vn 0.8777 -0.0975 0.4692
vn 0.2571 0.9566 0.1374
vn 0.4173 0.8810 0.2230
vn 0.5987 -0.6326 0.4913
vn 0.5987 0.6326 0.4914
vn 0.2231 -0.8810 0.4173
vn 0.1374 -0.9565 0.2571
vn 0.4691 0.0975 0.8777
vn 0.4692 -0.0976 0.8777
vn 0.1375 0.9565 0.2571
vn 0.2230 0.8810 0.4173
vn 0.0286 -0.9565 0.2902
vn 0.0976 0.0976 0.9904
vn 0.0975 -0.0975 0.9904
vn -0.0286 0.9566 0.2902
vn -0.0286 -0.9565 0.2902
vn -0.2889 0.0975 0.9524
vn -0.2889 -0.0976 0.9524
vn -0.4691 -0.0975 0.8777
vn -0.2230 0.8810 0.4173
vn -0.2231 -0.8810 0.4173
vn -0.1374 -0.9565 0.2571
vn -0.4691 0.0976 0.8777
vn -0.4913 -0.6326 0.5987
vn -0.4914 0.6326 0.5987
vn -0.7693 0.0975 0.6314
vn -0.7693 -0.0976 0.6314
vn -0.4173 -0.8810 0.2231
vn -0.2571 -0.9565 0.1374
vn -0.8777 0.0976 0.4691
vn -0.8777 -0.0975 0.4691
vn -0.2571 0.9565 0.1375
vn -0.4173 0.8810 0.2230
vn -0.4528 0.8810 0.1374
vn -0.4528 -0.8810 0.1373
vn -0.6332 0.7715 0.0624
vn -0.6331 -0.7715 0.0624
vn -0.6331 0.7715 -0.0624
vn -0.6332 -0.7715 -0.0624
vn -0.9524 0.0975 -0.2889
vn -0.9524 -0.0976 -0.2889
vn -0.4528 0.8810 -0.1374
vn -0.4528 -0.8810 -0.1373
vn -0.4173 -0.8810 -0.2231
vn -0.2571 -0.9565 -0.1374
vn -0.8777 0.0976 -0.4691
vn -0.8777 -0.0975 -0.4691
vn -0.2571 0.9566 -0.1374
vn -0.4173 0.8810 -0.2230
vn -0.7693 0.0975 -0.6314
vn -0.7693 -0.0976 -0.6314
vn -0.2254 -0.9566 -0.1850
vn -0.4691 -0.0975 -0.8777
vn -0.1375 0.9565 -0.2571
vn -0.2230 0.8810 -0.4173
vn -0.2231 -0.8810 -0.4173
vn -0.1374 -0.9565 -0.2571
vn -0.4691 0.0976 -0.8777
vn -0.1373 -0.8810 -0.4528
vn -0.1374 0.8810 -0.4528
vn -0.0624 0.7715 -0.6331
vn -0.0624 -0.7715 -0.6331
vn -0.0286 -0.9565 -0.2902
vt 0.750000 0.500000
vt 0.718750 0.437500
vt 0.750000 0.437500
vt 0.750000 0.875000
vt 0.718750 0.937500
vt 0.718750 0.875000
vt 0.718750 0.375000
vt 0.750000 0.375000
vt 0.750000 0.812500
vt 0.718750 0.812500
vt 0.718750 0.312500
vt 0.750000 0.312500
vt 0.750000 0.750000
vt 0.718750 0.750000
vt 0.750000 0.250000
vt 0.718750 0.250000
vt 0.718750 0.687500
vt 0.750000 0.687500
vt 0.718750 0.187500
vt 0.750000 0.187500
vt 0.750000 0.625000
vt 0.718750 0.625000
vt 0.718750 0.125000
vt 0.750000 0.125000
vt 0.750000 0.562500
vt 0.718750 0.562500
vt 0.718750 0.062500
vt 0.750000 0.062500
vt 0.718750 0.500000
vt 0.750000 0.937500
vt 0.734375 1.000000
vt 0.734375 0.000000
vt 0.687500 0.062500
vt 0.687500 0.500000
vt 0.703125 1.000000
vt 0.687500 0.937500
vt 0.703125 0.000000
vt 0.687500 0.437500
vt 0.687500 0.875000
vt 0.687500 0.375000
vt 0.687500 0.812500
vt 0.687500 0.312500
vt 0.687500 0.750000
vt 0.687500 0.250000
vt 0.687500 0.687500
vt 0.687500 0.187500
vt 0.687500 0.625000
vt 0.687500 0.125000
vt 0.687500 0.562500
vt 0.656250 0.312500
vt 0.656250 0.250000
vt 0.656250 0.687500
vt 0.656250 0.187500
vt 0.656250 0.625000
vt 0.656250 0.125000
vt 0.656250 0.562500
vt 0.656250 0.062500
vt 0.656250 0.500000
vt 0.671875 1.000000
vt 0.656250 0.937500
vt 0.671875 0.000000
vt 0.656250 0.437500
vt 0.656250 0.875000
vt 0.656250 0.375000
vt 0.656250 0.812500
vt 0.656250 0.750000
vt 0.640625 1.000000
vt 0.625000 0.937500
vt 0.640625 0.000000
vt 0.625000 0.062500
vt 0.625000 0.437500
vt 0.625000 0.875000
vt 0.625000 0.375000
vt 0.625000 0.812500
vt 0.625000 0.312500
vt 0.625000 0.750000
vt 0.625000 0.250000
vt 0.625000 0.687500
vt 0.625000 0.187500
vt 0.625000 0.625000
vt 0.625000 0.125000
vt 0.625000 0.562500
vt 0.625000 0.500000
vt 0.593750 0.750000
vt 0.593750 0.687500
vt 0.593750 0.250000
vt 0.593750 0.187500
vt 0.593750 0.625000
vt 0.593750 0.125000
vt 0.593750 0.562500
vt 0.593750 0.062500
vt 0.593750 0.500000
vt 0.609375 1.000000
vt 0.593750 0.937500
vt 0.609375 0.000000
vt 0.593750 0.437500
vt 0.593750 0.875000
vt 0.593750 0.375000
vt 0.593750 0.812500
vt 0.593750 0.312500
vt 0.562500 0.437500
vt 0.562500 0.875000
vt 0.562500 0.375000
vt 0.562500 0.812500
vt 0.562500 0.312500
vt 0.562500 0.750000
vt 0.562500 0.250000
vt 0.562500 0.687500
vt 0.562500 0.187500
vt 0.562500 0.625000
vt 0.562500 0.125000
vt 0.562500 0.562500
vt 0.562500 0.062500
vt 0.562500 0.500000
vt 0.578125 1.000000
vt 0.562500 0.937500
vt 0.578125 0.000000
vt 0.531250 0.250000
vt 0.531250 0.187500
vt 0.531250 0.625000
vt 0.531250 0.125000
vt 0.531250 0.562500
vt 0.531250 0.062500
vt 0.531250 0.500000
vt 0.546875 1.000000
vt 0.531250 0.937500
vt 0.546875 0.000000
vt 0.531250 0.437500
vt 0.531250 0.875000
vt 0.531250 0.375000
vt 0.531250 0.812500
vt 0.531250 0.312500
vt 0.531250 0.750000
vt 0.531250 0.687500
vt 0.500000 0.875000
vt 0.500000 0.375000
vt 0.500000 0.812500
vt 0.500000 0.312500
vt 0.500000 0.750000
vt 0.500000 0.250000
vt 0.500000 0.687500
vt 0.500000 0.187500
vt 0.500000 0.625000
vt 0.500000 0.125000
vt 0.500000 0.562500
vt 0.500000 0.062500
vt 0.500000 0.500000
vt 0.515625 1.000000
vt 0.500000 0.937500
vt 0.515625 0.000000
vt 0.500000 0.437500
vt 0.468750 0.625000
vt 0.468750 0.125000
vt 0.468750 0.562500
vt 0.468750 0.062500
vt 0.468750 0.500000
vt 0.484375 1.000000
vt 0.468750 0.937500
vt 0.484375 0.000000
vt 0.468750 0.437500
vt 0.468750 0.875000
vt 0.468750 0.375000
vt 0.468750 0.812500
vt 0.468750 0.312500
vt 0.468750 0.750000
vt 0.468750 0.250000
vt 0.468750 0.687500
vt 0.468750 0.187500
vt 0.437500 0.375000
vt 0.437500 0.812500
vt 0.437500 0.312500
vt 0.437500 0.750000
vt 0.437500 0.250000
vt 0.437500 0.687500
vt 0.437500 0.187500
vt 0.437500 0.625000
vt 0.437500 0.125000
vt 0.437500 0.562500
vt 0.437500 0.062500
vt 0.437500 0.500000
vt 0.453125 1.000000
vt 0.437500 0.937500
vt 0.453125 0.000000
vt 0.437500 0.437500
vt 0.437500 0.875000
vt 0.406250 0.187500
vt 0.406250 0.125000
vt 0.406250 0.625000
vt 0.406250 0.562500
vt 0.406250 0.062500
vt 0.406250 0.500000
vt 0.421875 1.000000
vt 0.406250 0.937500
vt 0.421875 0.000000
vt 0.406250 0.437500
vt 0.406250 0.875000
vt 0.406250 0.375000
vt 0.406250 0.812500
vt 0.406250 0.312500
vt 0.406250 0.750000
vt 0.406250 0.250000
vt 0.406250 0.687500
vt 0.375000 0.375000
vt 0.375000 0.312500
vt 0.375000 0.750000
vt 0.375000 0.250000
vt 0.375000 0.687500
vt 0.375000 0.187500
vt 0.375000 0.625000
vt 0.375000 0.125000
vt 0.375000 0.562500
vt 0.375000 0.062500
vt 0.375000 0.500000
vt 0.390625 1.000000
vt 0.375000 0.937500
vt 0.390625 0.000000
vt 0.375000 0.437500
vt 0.375000 0.875000
vt 0.375000 0.812500
vt 0.343750 0.062500
vt 0.343750 0.562500
vt 0.343750 0.500000
vt 0.359375 1.000000
vt 0.343750 0.937500
vt 0.359375 0.000000
vt 0.343750 0.437500
vt 0.343750 0.875000
vt 0.343750 0.375000
vt 0.343750 0.812500
vt 0.343750 0.312500
vt 0.343750 0.750000
vt 0.343750 0.250000
vt 0.343750 0.687500
vt 0.343750 0.187500
vt 0.343750 0.625000
vt 0.343750 0.125000
vt 0.312500 0.750000
vt 0.312500 0.250000
vt 0.312500 0.687500
vt 0.312500 0.187500
vt 0.312500 0.625000
vt 0.312500 0.125000
vt 0.312500 0.562500
vt 0.312500 0.062500
vt 0.312500 0.500000
vt 0.328125 1.000000
vt 0.312500 0.937500
vt 0.328125 0.000000
vt 0.312500 0.437500
vt 0.312500 0.875000
vt 0.312500 0.375000
vt 0.312500 0.812500
vt 0.312500 0.312500
vt 0.281250 0.562500
vt 0.281250 0.500000
vt 0.296875 1.000000
vt 0.281250 0.937500
vt 0.296875 0.000000
vt 0.281250 0.062500
vt 0.281250 0.437500
vt 0.281250 0.875000
vt 0.281250 0.375000
vt 0.281250 0.812500
vt 0.281250 0.312500
vt 0.281250 0.750000
vt 0.281250 0.250000
vt 0.281250 0.687500
vt 0.281250 0.187500
vt 0.281250 0.625000
vt 0.281250 0.125000
vt 0.250000 0.250000
vt 0.250000 0.750000
vt 0.250000 0.687500
vt 0.250000 0.187500
vt 0.250000 0.625000
vt 0.250000 0.125000
vt 0.250000 0.562500
vt 0.250000 0.062500
vt 0.250000 0.500000
vt 0.265625 1.000000
vt 0.250000 0.937500
vt 0.265625 0.000000
vt 0.250000 0.437500
vt 0.250000 0.875000
vt 0.250000 0.375000
vt 0.250000 0.812500
vt 0.250000 0.312500
vt 0.234375 1.000000
vt 0.218750 0.937500
vt 0.234375 0.000000
vt 0.218750 0.062500
vt 0.218750 0.437500
vt 0.218750 0.875000
vt 0.218750 0.375000
vt 0.218750 0.812500
vt 0.218750 0.312500
vt 0.218750 0.750000
vt 0.218750 0.250000
vt 0.218750 0.687500
vt 0.218750 0.187500
vt 0.218750 0.625000
vt 0.218750 0.125000
vt 0.218750 0.562500
vt 0.218750 0.500000
vt 0.187500 0.750000
vt 0.187500 0.687500
vt 0.187500 0.250000
vt 0.187500 0.187500
vt 0.187500 0.625000
vt 0.187500 0.125000
vt 0.187500 0.562500
vt 0.187500 0.062500
vt 0.187500 0.500000
vt 0.203125 1.000000
vt 0.187500 0.937500
vt 0.203125 0.000000
vt 0.187500 0.437500
vt 0.187500 0.875000
vt 0.187500 0.375000
vt 0.187500 0.812500
vt 0.187500 0.312500
vt 0.156250 0.437500
vt 0.156250 0.875000
vt 0.156250 0.375000
vt 0.156250 0.812500
vt 0.156250 0.312500
vt 0.156250 0.750000
vt 0.156250 0.250000
vt 0.156250 0.687500
vt 0.156250 0.187500
vt 0.156250 0.625000
vt 0.156250 0.125000
vt 0.156250 0.562500
vt 0.156250 0.062500
vt 0.156250 0.500000
vt 0.171875 1.000000
vt 0.156250 0.937500
vt 0.171875 0.000000
vt 0.125000 0.250000
vt 0.125000 0.187500
vt 0.125000 0.625000
vt 0.125000 0.125000
vt 0.125000 0.562500
vt 0.125000 0.062500
vt 0.125000 0.500000
vt 0.140625 1.000000
vt 0.125000 0.937500
vt 0.140625 0.000000
vt 0.125000 0.437500
vt 0.125000 0.875000
vt 0.125000 0.375000
vt 0.125000 0.812500
vt 0.125000 0.312500
vt 0.125000 0.750000
vt 0.125000 0.687500
vt 0.093750 0.375000
vt 0.093750 0.875000
vt 0.093750 0.812500
vt 0.093750 0.312500
vt 0.093750 0.750000
vt 0.093750 0.250000
vt 0.093750 0.687500
vt 0.093750 0.187500
vt 0.093750 0.625000
vt 0.093750 0.125000
vt 0.093750 0.562500
vt 0.093750 0.062500
vt 0.093750 0.500000
vt 0.109375 1.000000
vt 0.093750 0.937500
vt 0.109375 0.000000
vt 0.093750 0.437500
vt 0.062500 0.125000
vt 0.062500 0.625000
vt 0.062500 0.562500
vt 0.062500 0.062500
vt 0.062500 0.500000
vt 0.078125 1.000000
vt 0.062500 0.937500
vt 0.078125 0.000000
vt 0.062500 0.437500
vt 0.062500 0.875000
vt 0.062500 0.375000
vt 0.062500 0.812500
vt 0.062500 0.312500
vt 0.062500 0.750000
vt 0.062500 0.250000
vt 0.062500 0.687500
vt 0.062500 0.187500
vt 0.031250 0.875000
vt 0.031250 0.812500
vt 0.031250 0.375000
vt 0.031250 0.312500
vt 0.031250 0.750000
vt 0.031250 0.250000
vt 0.031250 0.687500
vt 0.031250 0.187500
vt 0.031250 0.625000
vt 0.031250 0.125000
vt 0.031250 0.562500
vt 0.031250 0.062500
vt 0.031250 0.500000
vt 0.046875 1.000000
vt 0.031250 0.937500
vt 0.046875 0.000000
vt 0.031250 0.437500
vt 0.000000 0.625000
vt 0.000000 0.562500
vt 0.000000 0.125000
vt 0.000000 0.062500
vt 0.000000 0.500000
vt 0.015625 1.000000
vt 0.000000 0.937500
vt 0.015625 0.000000
vt 0.000000 0.437500
vt 0.000000 0.875000
vt 0.000000 0.375000
vt 0.000000 0.812500
vt 0.000000 0.312500
vt 0.000000 0.750000
vt 0.000000 0.250000
vt 0.000000 0.687500
vt 0.000000 0.187500
vt 1.000000 0.312500
vt 0.968750 0.375000
vt 0.968750 0.312500
vt 1.000000 0.812500
vt 0.968750 0.750000
vt 1.000000 0.750000
vt 0.968750 0.250000
vt 1.000000 0.250000
vt 1.000000 0.687500
vt 0.968750 0.687500
vt 1.000000 0.187500
vt 0.968750 0.187500
vt 0.968750 0.625000
vt 1.000000 0.625000
vt 0.968750 0.125000
vt 1.000000 0.125000
vt 1.000000 0.562500
vt 0.968750 0.562500
vt 0.968750 0.062500
vt 1.000000 0.062500
vt 1.000000 0.500000
vt 0.968750 0.500000
vt 1.000000 0.937500
vt 0.984375 1.000000
vt 0.968750 0.937500
vt 0.984375 0.000000
vt 0.968750 0.437500
vt 1.000000 0.437500
vt 1.000000 0.875000
vt 0.968750 0.875000
vt 1.000000 0.375000
vt 0.968750 0.812500
vt 0.937500 0.062500
vt 0.937500 0.562500
vt 0.937500 0.500000
vt 0.953125 1.000000
vt 0.937500 0.937500
vt 0.953125 0.000000
vt 0.937500 0.437500
vt 0.937500 0.875000
vt 0.937500 0.375000
vt 0.937500 0.812500
vt 0.937500 0.312500
vt 0.937500 0.750000
vt 0.937500 0.250000
vt 0.937500 0.687500
vt 0.937500 0.187500
vt 0.937500 0.625000
vt 0.937500 0.125000
vt 0.906250 0.750000
vt 0.906250 0.250000
vt 0.906250 0.687500
vt 0.906250 0.187500
vt 0.906250 0.625000
vt 0.906250 0.125000
vt 0.906250 0.562500
vt 0.906250 0.062500
vt 0.906250 0.500000
vt 0.921875 1.000000
vt 0.906250 0.937500
vt 0.921875 0.000000
vt 0.906250 0.437500
vt 0.906250 0.875000
vt 0.906250 0.375000
vt 0.906250 0.812500
vt 0.906250 0.312500
vt 0.875000 0.562500
vt 0.875000 0.500000
vt 0.890625 1.000000
vt 0.875000 0.937500
vt 0.890625 0.000000
vt 0.875000 0.062500
vt 0.875000 0.437500
vt 0.875000 0.875000
vt 0.875000 0.375000
vt 0.875000 0.812500
vt 0.875000 0.312500
vt 0.875000 0.750000
vt 0.875000 0.250000
vt 0.875000 0.687500
vt 0.875000 0.187500
vt 0.875000 0.625000
vt 0.875000 0.125000
vt 0.843750 0.250000
vt 0.843750 0.750000
vt 0.843750 0.687500
vt 0.843750 0.187500
vt 0.843750 0.625000
vt 0.843750 0.125000
vt 0.843750 0.562500
vt 0.843750 0.062500
vt 0.843750 0.500000
vt 0.859375 1.000000
vt 0.843750 0.937500
vt 0.859375 0.000000
vt 0.843750 0.437500
vt 0.843750 0.875000
vt 0.843750 0.375000
vt 0.843750 0.812500
vt 0.843750 0.312500
vt 0.828125 0.000000
vt 0.812500 0.062500
vt 0.812500 0.437500
vt 0.812500 0.937500
vt 0.812500 0.875000
vt 0.812500 0.375000
vt 0.812500 0.812500
vt 0.812500 0.312500
vt 0.812500 0.750000
vt 0.812500 0.250000
vt 0.812500 0.687500
vt 0.812500 0.187500
vt 0.812500 0.625000
vt 0.812500 0.125000
vt 0.812500 0.562500
vt 0.812500 0.500000
vt 0.828125 1.000000
vt 0.781250 0.250000
vt 0.781250 0.187500
vt 0.781250 0.625000
vt 0.781250 0.125000
vt 0.781250 0.562500
vt 0.781250 0.062500
vt 0.781250 0.500000
vt 0.796875 1.000000
vt 0.781250 0.937500
vt 0.796875 0.000000
vt 0.781250 0.437500
vt 0.781250 0.875000
vt 0.781250 0.375000
vt 0.781250 0.812500
vt 0.781250 0.312500
vt 0.781250 0.750000
vt 0.781250 0.687500
vt 0.765625 1.000000
vt 0.765625 0.000000
s 0
usemtl CoreMaterial
f 4/1/1 15/2/1 5/3/1
f 475/4/2 7/5/2 8/6/2
f 5/3/3 16/7/3 478/8/3
f 1/9/4 8/6/4 9/10/4
f 478/8/5 17/11/5 6/12/5
f 476/13/6 9/10/6 10/14/6
f 479/15/7 17/11/7 18/16/7
f 476/13/8 11/17/8 2/18/8
f 479/15/9 19/19/9 480/20/9
f 477/21/10 11/17/10 12/22/10
f 480/20/11 20/23/11 481/24/11
f 3/25/12 12/22/12 13/26/12
f 481/24/13 21/27/13 482/28/13
f 3/25/14 14/29/14 4/1/14
f 474/30/15 82/31/15 7/5/15
f 308/32/16 482/28/16 21/27/16
f 20/23/17 36/33/17 21/27/17
f 13/26/18 29/34/18 14/29/18
f 7/5/19 82/35/19 22/36/19
f 308/37/20 21/27/20 36/33/20
f 14/29/21 30/38/21 15/2/21
f 7/5/22 23/39/22 8/6/22
f 15/2/23 31/40/23 16/7/23
f 8/6/24 24/41/24 9/10/24
f 17/11/25 31/40/25 32/42/25
f 9/10/26 25/43/26 10/14/26
f 18/16/27 32/42/27 33/44/27
f 10/14/28 26/45/28 11/17/28
f 19/19/29 33/44/29 34/46/29
f 11/17/30 27/47/30 12/22/30
f 20/23/31 34/46/31 35/48/31
f 13/26/32 27/47/32 28/49/32
f 33/44/33 47/50/33 48/51/33
f 25/43/34 41/52/34 26/45/34
f 34/46/35 48/51/35 49/53/35
f 26/45/36 42/54/36 27/47/36
f 35/48/37 49/53/37 50/55/37
f 28/49/38 42/54/38 43/56/38
f 36/33/39 50/55/39 51/57/39
f 29/34/40 43/56/40 44/58/40
f 22/36/41 82/59/41 37/60/41
f 308/61/42 36/33/42 51/57/42
f 29/34/43 45/62/43 30/38/43
f 22/36/44 38/63/44 23/39/44
f 30/38/45 46/64/45 31/40/45
f 23/39/46 39/65/46 24/41/46
f 32/42/47 46/64/47 47/50/47
f 24/41/48 40/66/48 25/43/48
f 37/60/49 82/67/49 52/68/49
f 308/69/50 51/57/50 66/70/50
f 44/58/51 60/71/51 45/62/51
f 37/60/52 53/72/52 38/63/52
f 45/62/53 61/73/53 46/64/53
f 38/63/54 54/74/54 39/65/54
f 47/50/55 61/73/55 62/75/55
f 39/65/56 55/76/56 40/66/56
f 47/50/57 63/77/57 48/51/57
f 41/52/58 55/76/58 56/78/58
f 49/53/59 63/77/59 64/79/59
f 41/52/60 57/80/60 42/54/60
f 50/55/61 64/79/61 65/81/61
f 43/56/62 57/80/62 58/82/62
f 51/57/63 65/81/63 66/70/63
f 44/58/64 58/82/64 59/83/64
f 56/78/65 70/84/65 71/85/65
f 64/79/66 78/86/66 79/87/66
f 56/78/67 72/88/67 57/80/67
f 64/79/68 80/89/68 65/81/68
f 58/82/69 72/88/69 73/90/69
f 65/81/70 81/91/70 66/70/70
f 59/83/71 73/90/71 74/92/71
f 52/68/72 82/93/72 67/94/72
f 308/95/73 66/70/73 81/91/73
f 59/83/74 75/96/74 60/71/74
f 53/72/75 67/94/75 68/97/75
f 60/71/76 76/98/76 61/73/76
f 54/74/77 68/97/77 69/99/77
f 62/75/78 76/98/78 77/100/78
f 54/74/79 70/84/79 55/76/79
f 62/75/80 78/86/80 63/77/80
f 74/92/81 91/101/81 75/96/81
f 67/94/82 84/102/82 68/97/82
f 75/96/83 92/103/83 76/98/83
f 68/97/84 85/104/84 69/99/84
f 77/100/85 92/103/85 93/105/85
f 69/99/86 86/106/86 70/84/86
f 77/100/87 94/107/87 78/86/87
f 71/85/88 86/106/88 87/108/88
f 79/87/89 94/107/89 95/109/89
f 71/85/90 88/110/90 72/88/90
f 80/89/91 95/109/91 96/111/91
f 73/90/92 88/110/92 89/112/92
f 81/91/93 96/111/93 97/113/93
f 74/92/94 89/112/94 90/114/94
f 67/94/95 82/115/95 83/116/95
f 308/117/96 81/91/96 97/113/96
f 95/109/97 109/118/97 110/119/97
f 87/108/98 103/120/98 88/110/98
f 95/109/99 111/121/99 96/111/99
f 89/112/100 103/120/100 104/122/100
f 96/111/101 112/123/101 97/113/101
f 90/114/102 104/122/102 105/124/102
f 83/116/103 82/125/103 98/126/103
f 308/127/104 97/113/104 112/123/104
f 90/114/105 106/128/105 91/101/105
f 83/116/106 99/129/106 84/102/106
f 91/101/107 107/130/107 92/103/107
f 85/104/108 99/129/108 100/131/108
f 93/105/109 107/130/109 108/132/109
f 85/104/110 101/133/110 86/106/110
f 93/105/111 109/118/111 94/107/111
f 87/108/112 101/133/112 102/134/112
f 98/126/113 114/135/113 99/129/113
f 106/128/114 122/136/114 107/130/114
f 99/129/115 115/137/115 100/131/115
f 108/132/116 122/136/116 123/138/116
f 100/131/117 116/139/117 101/133/117
f 108/132/118 124/140/118 109/118/118
f 102/134/119 116/139/119 117/141/119
f 110/119/120 124/140/120 125/142/120
f 102/134/121 118/143/121 103/120/121
f 111/121/122 125/142/122 126/144/122
f 104/122/123 118/143/123 119/145/123
f 111/121/124 127/146/124 112/123/124
f 105/124/125 119/145/125 120/147/125
f 98/126/126 82/148/126 113/149/126
f 308/150/127 112/123/127 127/146/127
f 105/124/128 121/151/128 106/128/128
f 117/141/129 133/152/129 118/143/129
f 125/142/130 141/153/130 126/144/130
f 119/145/131 133/152/131 134/154/131
f 126/144/132 142/155/132 127/146/132
f 120/147/133 134/154/133 135/156/133
f 113/149/134 82/157/134 128/158/134
f 308/159/135 127/146/135 142/155/135
f 120/147/136 136/160/136 121/151/136
f 114/135/137 128/158/137 129/161/137
f 121/151/138 137/162/138 122/136/138
f 115/137/139 129/161/139 130/163/139
f 123/138/140 137/162/140 138/164/140
f 115/137/141 131/165/141 116/139/141
f 123/138/142 139/166/142 124/140/142
f 117/141/143 131/165/143 132/167/143
f 125/142/144 139/166/144 140/168/144
f 136/160/145 152/169/145 137/162/145
f 129/161/146 145/170/146 130/163/146
f 138/164/147 152/169/147 153/171/147
f 130/163/148 146/172/148 131/165/148
f 138/164/149 154/173/149 139/166/149
f 132/167/150 146/172/150 147/174/150
f 140/168/151 154/173/151 155/175/151
f 132/167/152 148/176/152 133/152/152
f 141/153/153 155/175/153 156/177/153
f 134/154/154 148/176/154 149/178/154
f 141/153/155 157/179/155 142/155/155
f 135/156/156 149/178/156 150/180/156
f 128/158/157 82/181/157 143/182/157
f 308/183/158 142/155/158 157/179/158
f 135/156/159 151/184/159 136/160/159
f 128/158/160 144/185/160 129/161/160
f 156/177/161 170/186/161 171/187/161
f 149/178/162 163/188/162 164/189/162
f 157/179/163 171/187/163 172/190/163
f 150/180/164 164/189/164 165/191/164
f 143/182/165 82/192/165 158/193/165
f 308/194/166 157/179/166 172/190/166
f 150/180/167 166/195/167 151/184/167
f 143/182/168 159/196/168 144/185/168
f 151/184/169 167/197/169 152/169/169
f 144/185/170 160/198/170 145/170/170
f 153/171/171 167/197/171 168/199/171
f 145/170/172 161/200/172 146/172/172
f 153/171/173 169/201/173 154/173/173
f 147/174/174 161/200/174 162/202/174
f 155/175/175 169/201/175 170/186/175
f 147/174/176 163/188/176 148/176/176
f 168/199/177 182/203/177 183/204/177
f 160/198/178 176/205/178 161/200/178
f 168/199/179 184/206/179 169/201/179
f 162/202/180 176/205/180 177/207/180
f 170/186/181 184/206/181 185/208/181
f 162/202/182 178/209/182 163/188/182
f 171/187/183 185/208/183 186/210/183
f 164/189/184 178/209/184 179/211/184
f 172/190/185 186/210/185 187/212/185
f 165/191/186 179/211/186 180/213/186
f 158/193/187 82/214/187 173/215/187
f 308/216/188 172/190/188 187/212/188
f 165/191/189 181/217/189 166/195/189
f 158/193/190 174/218/190 159/196/190
f 166/195/191 182/203/191 167/197/191
f 159/196/192 175/219/192 160/198/192
f 186/210/193 202/220/193 187/212/193
f 180/213/194 194/221/194 195/222/194
f 173/215/195 82/223/195 188/224/195
f 308/225/196 187/212/196 202/220/196
f 180/213/197 196/226/197 181/217/197
f 174/218/198 188/224/198 189/227/198
f 181/217/199 197/228/199 182/203/199
f 175/219/200 189/227/200 190/229/200
f 183/204/201 197/228/201 198/230/201
f 175/219/202 191/231/202 176/205/202
f 183/204/203 199/232/203 184/206/203
f 177/207/204 191/231/204 192/233/204
f 185/208/205 199/232/205 200/234/205
f 177/207/206 193/235/206 178/209/206
f 185/208/207 201/236/207 186/210/207
f 179/211/208 193/235/208 194/221/208
f 190/229/209 206/237/209 191/231/209
f 198/230/210 214/238/210 199/232/210
f 192/233/211 206/237/211 207/239/211
f 200/234/212 214/238/212 215/240/212
f 192/233/213 208/241/213 193/235/213
f 201/236/214 215/240/214 216/242/214
f 194/221/215 208/241/215 209/243/215
f 202/220/216 216/242/216 217/244/216
f 195/222/217 209/243/217 210/245/217
f 188/224/218 82/246/218 203/247/218
f 308/248/219 202/220/219 217/244/219
f 195/222/220 211/249/220 196/226/220
f 188/224/221 204/250/221 189/227/221
f 196/226/222 212/251/222 197/228/222
f 189/227/223 205/252/223 190/229/223
f 198/230/224 212/251/224 213/253/224
f 210/245/225 224/254/225 225/255/225
f 203/247/226 82/256/226 218/257/226
f 308/258/227 217/244/227 232/259/227
f 210/245/228 226/260/228 211/249/228
f 203/247/229 219/261/229 204/250/229
f 211/249/230 227/262/230 212/251/230
f 204/250/231 220/263/231 205/252/231
f 213/253/232 227/262/232 228/264/232
f 205/252/233 221/265/233 206/237/233
f 213/253/234 229/266/234 214/238/234
f 207/239/235 221/265/235 222/267/235
f 215/240/236 229/266/236 230/268/236
f 207/239/237 223/269/237 208/241/237
f 216/242/238 230/268/238 231/270/238
f 209/243/239 223/269/239 224/254/239
f 217/244/240 231/270/240 232/259/240
f 228/264/241 244/271/241 229/266/241
f 222/267/242 236/272/242 237/273/242
f 230/268/243 244/271/243 245/274/243
f 222/267/244 238/275/244 223/269/244
f 231/270/245 245/274/245 246/276/245
f 224/254/246 238/275/246 239/277/246
f 231/270/247 247/278/247 232/259/247
f 225/255/248 239/277/248 240/279/248
f 218/257/249 82/280/249 233/281/249
f 308/282/250 232/259/250 247/278/250
f 225/255/251 241/283/251 226/260/251
f 219/261/252 233/281/252 234/284/252
f 226/260/253 242/285/253 227/262/253
f 219/261/254 235/286/254 220/263/254
f 228/264/255 242/285/255 243/287/255
f 220/263/256 236/272/256 221/265/256
f 233/281/257 82/288/257 248/289/257
f 308/290/258 247/278/258 262/291/258
f 240/279/259 256/292/259 241/283/259
f 234/284/260 248/289/260 249/293/260
f 241/283/261 257/294/261 242/285/261
f 235/286/262 249/293/262 250/295/262
f 243/287/263 257/294/263 258/296/263
f 235/286/264 251/297/264 236/272/264
f 243/287/265 259/298/265 244/271/265
f 237/273/266 251/297/266 252/299/266
f 245/274/267 259/298/267 260/300/267
f 237/273/268 253/301/268 238/275/268
f 245/274/269 261/302/269 246/276/269
f 239/277/270 253/301/270 254/303/270
f 246/276/271 262/291/271 247/278/271
f 240/279/272 254/303/272 255/304/272
f 252/299/273 266/305/273 267/306/273
f 260/300/274 274/307/274 275/308/274
f 252/299/275 268/309/275 253/301/275
f 261/302/276 275/308/276 276/310/276
f 254/303/277 268/309/277 269/311/277
f 261/302/278 277/312/278 262/291/278
f 255/304/279 269/311/279 270/313/279
f 248/289/280 82/314/280 263/315/280
f 308/316/281 262/291/281 277/312/281
f 255/304/282 271/317/282 256/292/282
f 249/293/283 263/315/283 264/318/283
f 256/292/284 272/319/284 257/294/284
f 249/293/285 265/320/285 250/295/285
f 258/296/286 272/319/286 273/321/286
f 250/295/287 266/305/287 251/297/287
f 258/296/288 274/307/288 259/298/288
f 270/313/289 286/322/289 271/317/289
f 263/315/290 279/323/290 264/318/290
f 271/317/291 287/324/291 272/319/291
f 264/318/292 280/325/292 265/320/292
f 273/321/293 287/324/293 288/326/293
f 265/320/294 281/327/294 266/305/294
f 273/321/295 289/328/295 274/307/295
f 267/306/296 281/327/296 282/329/296
f 275/308/297 289/328/297 290/330/297
f 267/306/298 283/331/298 268/309/298
f 275/308/299 291/332/299 276/310/299
f 269/311/300 283/331/300 284/333/300
f 276/310/301 292/334/301 277/312/301
f 270/313/302 284/333/302 285/335/302
f 263/315/303 82/336/303 278/337/303
f 308/338/304 277/312/304 292/334/304
f 290/330/305 304/339/305 305/340/305
f 282/329/306 298/341/306 283/331/306
f 290/330/307 306/342/307 291/332/307
f 284/333/308 298/341/308 299/343/308
f 292/334/309 306/342/309 307/344/309
f 285/335/310 299/343/310 300/345/310
f 278/337/311 82/346/311 293/347/311
f 308/348/312 292/334/312 307/344/312
f 285/335/313 301/349/313 286/322/313
f 278/337/314 294/350/314 279/323/314
f 286/322/315 302/351/315 287/324/315
f 280/325/316 294/350/316 295/352/316
f 288/326/317 302/351/317 303/353/317
f 280/325/318 296/354/318 281/327/318
f 288/326/319 304/339/319 289/328/319
f 282/329/320 296/354/320 297/355/320
f 301/349/321 318/356/321 302/351/321
f 295/352/322 310/357/322 311/358/322
f 303/353/323 318/356/323 319/359/323
f 295/352/324 312/360/324 296/354/324
f 303/353/325 320/361/325 304/339/325
f 297/355/326 312/360/326 313/362/326
f 305/340/327 320/361/327 321/363/327
f 297/355/328 314/364/328 298/341/328
f 305/340/329 322/365/329 306/342/329
f 299/343/330 314/364/330 315/366/330
f 306/342/331 323/367/331 307/344/331
f 300/345/332 315/366/332 316/368/332
f 293/347/333 82/369/333 309/370/333
f 308/371/334 307/344/334 323/367/334
f 300/345/335 317/372/335 301/349/335
f 294/350/336 309/370/336 310/357/336
f 321/363/337 337/373/337 322/365/337
f 315/366/338 329/374/338 330/375/338
f 323/367/339 337/373/339 338/376/339
f 316/368/340 330/375/340 331/377/340
f 309/370/341 82/378/341 324/379/341
f 308/380/342 323/367/342 338/376/342
f 316/368/343 332/381/343 317/372/343
f 309/370/344 325/382/344 310/357/344
f 317/372/345 333/383/345 318/356/345
f 310/357/346 326/384/346 311/358/346
f 319/359/347 333/383/347 334/385/347
f 311/358/348 327/386/348 312/360/348
f 319/359/349 335/387/349 320/361/349
f 313/362/350 327/386/350 328/388/350
f 321/363/351 335/387/351 336/389/351
f 313/362/352 329/374/352 314/364/352
f 326/384/353 340/390/353 341/391/353
f 334/385/354 348/392/354 349/393/354
f 326/384/355 342/394/355 327/386/355
f 334/385/356 350/395/356 335/387/356
f 328/388/357 342/394/357 343/396/357
f 336/389/358 350/395/358 351/397/358
f 328/388/359 344/398/359 329/374/359
f 336/389/360 352/399/360 337/373/360
f 330/375/361 344/398/361 345/400/361
f 338/376/362 352/399/362 353/401/362
f 331/377/363 345/400/363 346/402/363
f 324/379/364 82/403/364 339/404/364
f 308/405/365 338/376/365 353/401/365
f 331/377/366 347/406/366 332/381/366
f 324/379/367 340/390/367 325/382/367
f 332/381/368 348/392/368 333/383/368
f 345/400/369 359/407/369 360/408/369
f 353/401/370 367/409/370 368/410/370
f 346/402/371 360/408/371 361/411/371
f 339/404/372 82/412/372 354/413/372
f 308/414/373 353/401/373 368/410/373
f 346/402/374 362/415/374 347/406/374
f 339/404/375 355/416/375 340/390/375
f 347/406/376 363/417/376 348/392/376
f 341/391/377 355/416/377 356/418/377
f 349/393/378 363/417/378 364/419/378
f 341/391/379 357/420/379 342/394/379
f 349/393/380 365/421/380 350/395/380
f 343/396/381 357/420/381 358/422/381
f 351/397/382 365/421/382 366/423/382
f 343/396/383 359/407/383 344/398/383
f 351/397/384 367/409/384 352/399/384
f 364/424/385 378/425/385 379/426/385
f 356/427/386 372/428/386 357/429/386
f 364/424/387 380/430/387 365/431/387
f 358/432/388 372/428/388 373/433/388
f 366/434/389 380/430/389 381/435/389
f 358/432/390 374/436/390 359/437/390
f 366/434/391 382/438/391 367/439/391
f 360/440/392 374/436/392 375/441/392
f 367/439/393 383/442/393 368/443/393
f 361/444/394 375/441/394 376/445/394
f 354/446/395 82/447/395 369/448/395
f 308/449/396 368/443/396 383/442/396
f 361/444/397 377/450/397 362/451/397
f 355/452/398 369/448/398 370/453/398
f 362/451/399 378/425/399 363/454/399
f 356/427/400 370/453/400 371/455/400
f 382/438/401 398/456/401 383/442/401
f 376/445/402 390/457/402 391/458/402
f 369/448/403 82/459/403 384/460/403
f 308/461/404 383/442/404 398/456/404
f 376/445/405 392/462/405 377/450/405
f 370/453/406 384/460/406 385/463/406
f 377/450/407 393/464/407 378/425/407
f 371/455/408 385/463/408 386/465/408
f 379/426/409 393/464/409 394/466/409
f 371/455/410 387/467/410 372/428/410
f 379/426/411 395/468/411 380/430/411
f 373/433/412 387/467/412 388/469/412
f 381/435/413 395/468/413 396/470/413
f 373/433/414 389/471/414 374/436/414
f 381/435/415 397/472/415 382/438/415
f 375/441/416 389/471/416 390/457/416
f 386/465/417 402/473/417 387/467/417
f 394/466/418 410/474/418 395/468/418
f 388/469/419 402/473/419 403/475/419
f 396/470/420 410/474/420 411/476/420
f 388/469/421 404/477/421 389/471/421
f 396/470/422 412/478/422 397/472/422
f 390/457/423 404/477/423 405/479/423
f 398/456/424 412/478/424 413/480/424
f 391/458/425 405/479/425 406/481/425
f 384/460/426 82/482/426 399/483/426
f 308/484/427 398/456/427 413/480/427
f 391/458/428 407/485/428 392/462/428
f 384/460/429 400/486/429 385/463/429
f 392/462/430 408/487/430 393/464/430
f 386/465/431 400/486/431 401/488/431
f 394/466/432 408/487/432 409/489/432
f 406/481/433 420/490/433 421/491/433
f 399/483/434 82/492/434 414/493/434
f 308/494/435 413/480/435 428/495/435
f 406/481/436 422/496/436 407/485/436
f 399/483/437 415/497/437 400/486/437
f 407/485/438 423/498/438 408/487/438
f 401/488/439 415/497/439 416/499/439
f 409/489/440 423/498/440 424/500/440
f 401/488/441 417/501/441 402/473/441
f 409/489/442 425/502/442 410/474/442
f 403/475/443 417/501/443 418/503/443
f 411/476/444 425/502/444 426/504/444
f 403/475/445 419/505/445 404/477/445
f 411/476/446 427/506/446 412/478/446
f 405/479/447 419/505/447 420/490/447
f 412/478/448 428/495/448 413/480/448
f 424/500/449 440/507/449 425/502/449
f 418/503/450 432/508/450 433/509/450
f 426/504/451 440/507/451 441/510/451
f 418/503/452 434/511/452 419/505/452
f 426/504/453 442/512/453 427/506/453
f 420/490/454 434/511/454 435/513/454
f 428/495/455 442/512/455 443/514/455
f 421/491/456 435/513/456 436/515/456
f 414/493/457 82/516/457 429/517/457
f 308/518/458 428/495/458 443/514/458
f 421/491/459 437/519/459 422/496/459
f 414/493/460 430/520/460 415/497/460
f 422/496/461 438/521/461 423/498/461
f 416/499/462 430/520/462 431/522/462
f 424/500/463 438/521/463 439/523/463
f 416/499/464 432/508/464 417/501/464
f 308/524/465 443/514/465 458/525/465
f 436/515/466 452/526/466 437/519/466
f 430/520/467 444/527/467 445/528/467
f 437/519/468 453/529/468 438/521/468
f 431/522/469 445/528/469 446/530/469
f 439/523/470 453/529/470 454/531/470
f 431/522/471 447/532/471 432/508/471
f 439/523/472 455/533/472 440/507/472
f 433/509/473 447/532/473 448/534/473
f 441/510/474 455/533/474 456/535/474
f 433/509/475 449/536/475 434/511/475
f 441/510/476 457/537/476 442/512/476
f 435/513/477 449/536/477 450/538/477
f 442/512/478 458/525/478 443/514/478
f 436/515/479 450/538/479 451/539/479
f 429/517/480 82/540/480 444/527/480
f 456/535/481 470/541/481 471/542/481
f 448/534/482 464/543/482 449/536/482
f 456/535/483 472/544/483 457/537/483
f 450/538/484 464/543/484 465/545/484
f 458/525/485 472/544/485 473/546/485
f 451/539/486 465/545/486 466/547/486
f 444/527/487 82/548/487 459/549/487
f 308/550/488 458/525/488 473/546/488
f 451/539/489 467/551/489 452/526/489
f 444/527/490 460/552/490 445/528/490
f 452/526/491 468/553/491 453/529/491
f 446/530/492 460/552/492 461/554/492
f 454/531/493 468/553/493 469/555/493
f 446/530/494 462/556/494 447/532/494
f 454/531/495 470/541/495 455/533/495
f 448/534/496 462/556/496 463/557/496
f 459/549/497 475/4/497 460/552/497
f 467/551/498 478/8/498 468/553/498
f 461/554/499 475/4/499 1/9/499
f 468/553/500 6/12/500 469/555/500
f 462/556/501 1/9/501 476/13/501
f 469/555/502 479/15/502 470/541/502
f 463/557/503 476/13/503 2/18/503
f 471/542/504 479/15/504 480/20/504
f 464/543/505 2/18/505 477/21/505
f 471/542/506 481/24/506 472/544/506
f 465/545/507 477/21/507 3/25/507
f 472/544/508 482/28/508 473/546/508
f 466/547/509 3/25/509 4/1/509
f 459/549/510 82/558/510 474/30/510
f 308/559/511 473/546/511 482/28/511
f 466/547/512 5/3/512 467/551/512
f 4/1/513 14/29/513 15/2/513
f 475/4/2 474/30/2 7/5/2
f 5/3/3 15/2/3 16/7/3
f 1/9/4 475/4/4 8/6/4
f 478/8/5 16/7/5 17/11/5
f 476/13/6 1/9/6 9/10/6
f 479/15/7 6/12/7 17/11/7
f 476/13/8 10/14/8 11/17/8
f 479/15/9 18/16/9 19/19/9
f 477/21/10 2/18/10 11/17/10
f 480/20/11 19/19/11 20/23/11
f 3/25/12 477/21/12 12/22/12
f 481/24/13 20/23/13 21/27/13
f 3/25/514 13/26/514 14/29/514
f 20/23/17 35/48/17 36/33/17
f 13/26/18 28/49/18 29/34/18
f 14/29/21 29/34/21 30/38/21
f 7/5/22 22/36/22 23/39/22
f 15/2/23 30/38/23 31/40/23
f 8/6/24 23/39/24 24/41/24
f 17/11/25 16/7/25 31/40/25
f 9/10/26 24/41/26 25/43/26
f 18/16/27 17/11/27 32/42/27
f 10/14/28 25/43/28 26/45/28
f 19/19/29 18/16/29 33/44/29
f 11/17/30 26/45/30 27/47/30
f 20/23/31 19/19/31 34/46/31
f 13/26/32 12/22/32 27/47/32
f 33/44/33 32/42/33 47/50/33
f 25/43/34 40/66/34 41/52/34
f 34/46/35 33/44/35 48/51/35
f 26/45/36 41/52/36 42/54/36
f 35/48/515 34/46/515 49/53/515
f 28/49/38 27/47/38 42/54/38
f 36/33/516 35/48/516 50/55/516
f 29/34/517 28/49/517 43/56/517
f 29/34/518 44/58/518 45/62/518
f 22/36/519 37/60/519 38/63/519
f 30/38/45 45/62/45 46/64/45
f 23/39/520 38/63/520 39/65/520
f 32/42/47 31/40/47 46/64/47
f 24/41/48 39/65/48 40/66/48
f 44/58/521 59/83/521 60/71/521
f 37/60/52 52/68/52 53/72/52
f 45/62/53 60/71/53 61/73/53
f 38/63/54 53/72/54 54/74/54
f 47/50/55 46/64/55 61/73/55
f 39/65/56 54/74/56 55/76/56
f 47/50/522 62/75/522 63/77/522
f 41/52/523 40/66/523 55/76/523
f 49/53/59 48/51/59 63/77/59
f 41/52/60 56/78/60 57/80/60
f 50/55/61 49/53/61 64/79/61
f 43/56/62 42/54/62 57/80/62
f 51/57/63 50/55/63 65/81/63
f 44/58/524 43/56/524 58/82/524
f 56/78/525 55/76/525 70/84/525
f 64/79/66 63/77/66 78/86/66
f 56/78/67 71/85/67 72/88/67
f 64/79/68 79/87/68 80/89/68
f 58/82/69 57/80/69 72/88/69
f 65/81/526 80/89/526 81/91/526
f 59/83/71 58/82/71 73/90/71
f 59/83/74 74/92/74 75/96/74
f 53/72/527 52/68/527 67/94/527
f 60/71/76 75/96/76 76/98/76
f 54/74/77 53/72/77 68/97/77
f 62/75/78 61/73/78 76/98/78
f 54/74/79 69/99/79 70/84/79
f 62/75/528 77/100/528 78/86/528
f 74/92/529 90/114/529 91/101/529
f 67/94/530 83/116/530 84/102/530
f 75/96/83 91/101/83 92/103/83
f 68/97/531 84/102/531 85/104/531
f 77/100/85 76/98/85 92/103/85
f 69/99/86 85/104/86 86/106/86
f 77/100/87 93/105/87 94/107/87
f 71/85/88 70/84/88 86/106/88
f 79/87/89 78/86/89 94/107/89
f 71/85/90 87/108/90 88/110/90
f 80/89/532 79/87/532 95/109/532
f 73/90/92 72/88/92 88/110/92
f 81/91/533 80/89/533 96/111/533
f 74/92/534 73/90/534 89/112/534
f 95/109/97 94/107/97 109/118/97
f 87/108/98 102/134/98 103/120/98
f 95/109/99 110/119/99 111/121/99
f 89/112/100 88/110/100 103/120/100
f 96/111/101 111/121/101 112/123/101
f 90/114/102 89/112/102 104/122/102
f 90/114/105 105/124/105 106/128/105
f 83/116/106 98/126/106 99/129/106
f 91/101/107 106/128/107 107/130/107
f 85/104/108 84/102/108 99/129/108
f 93/105/109 92/103/109 107/130/109
f 85/104/110 100/131/110 101/133/110
f 93/105/111 108/132/111 109/118/111
f 87/108/112 86/106/112 101/133/112
f 98/126/113 113/149/113 114/135/113
f 106/128/114 121/151/114 122/136/114
f 99/129/115 114/135/115 115/137/115
f 108/132/116 107/130/116 122/136/116
f 100/131/117 115/137/117 116/139/117
f 108/132/118 123/138/118 124/140/118
f 102/134/119 101/133/119 116/139/119
f 110/119/120 109/118/120 124/140/120
f 102/134/121 117/141/121 118/143/121
f 111/121/122 110/119/122 125/142/122
f 104/122/123 103/120/123 118/143/123
f 111/121/124 126/144/124 127/146/124
f 105/124/535 104/122/535 119/145/535
f 105/124/536 120/147/536 121/151/536
f 117/141/129 132/167/129 133/152/129
f 125/142/130 140/168/130 141/153/130
f 119/145/131 118/143/131 133/152/131
f 126/144/132 141/153/132 142/155/132
f 120/147/537 119/145/537 134/154/537
f 120/147/538 135/156/538 136/160/538
f 114/135/137 113/149/137 128/158/137
f 121/151/138 136/160/138 137/162/138
f 115/137/139 114/135/139 129/161/139
f 123/138/140 122/136/140 137/162/140
f 115/137/141 130/163/141 131/165/141
f 123/138/142 138/164/142 139/166/142
f 117/141/143 116/139/143 131/165/143
f 125/142/144 124/140/144 139/166/144
f 136/160/145 151/184/145 152/169/145
f 129/161/146 144/185/146 145/170/146
f 138/164/147 137/162/147 152/169/147
f 130/163/148 145/170/148 146/172/148
f 138/164/149 153/171/149 154/173/149
f 132/167/150 131/165/150 146/172/150
f 140/168/151 139/166/151 154/173/151
f 132/167/152 147/174/152 148/176/152
f 141/153/153 140/168/153 155/175/153
f 134/154/154 133/152/154 148/176/154
f 141/153/155 156/177/155 157/179/155
f 135/156/156 134/154/156 149/178/156
f 135/156/159 150/180/159 151/184/159
f 128/158/160 143/182/160 144/185/160
f 156/177/539 155/175/539 170/186/539
f 149/178/162 148/176/162 163/188/162
f 157/179/540 156/177/540 171/187/540
f 150/180/541 149/178/541 164/189/541
f 150/180/542 165/191/542 166/195/542
f 143/182/543 158/193/543 159/196/543
f 151/184/169 166/195/169 167/197/169
f 144/185/544 159/196/544 160/198/544
f 153/171/171 152/169/171 167/197/171
f 145/170/172 160/198/172 161/200/172
f 153/171/173 168/199/173 169/201/173
f 147/174/174 146/172/174 161/200/174
f 155/175/175 154/173/175 169/201/175
f 147/174/176 162/202/176 163/188/176
f 168/199/177 167/197/177 182/203/177
f 160/198/178 175/219/178 176/205/178
f 168/199/545 183/204/545 184/206/545
f 162/202/546 161/200/546 176/205/546
f 170/186/181 169/201/181 184/206/181
f 162/202/182 177/207/182 178/209/182
f 171/187/183 170/186/183 185/208/183
f 164/189/184 163/188/184 178/209/184
f 172/190/185 171/187/185 186/210/185
f 165/191/186 164/189/186 179/211/186
f 165/191/189 180/213/189 181/217/189
f 158/193/190 173/215/190 174/218/190
f 166/195/191 181/217/191 182/203/191
f 159/196/192 174/218/192 175/219/192
f 186/210/193 201/236/193 202/220/193
f 180/213/194 179/211/194 194/221/194
f 180/213/197 195/222/197 196/226/197
f 174/218/198 173/215/198 188/224/198
f 181/217/199 196/226/199 197/228/199
f 175/219/200 174/218/200 189/227/200
f 183/204/201 182/203/201 197/228/201
f 175/219/202 190/229/202 191/231/202
f 183/204/203 198/230/203 199/232/203
f 177/207/204 176/205/204 191/231/204
f 185/208/205 184/206/205 199/232/205
f 177/207/206 192/233/206 193/235/206
f 185/208/207 200/234/207 201/236/207
f 179/211/208 178/209/208 193/235/208
f 190/229/209 205/252/209 206/237/209
f 198/230/210 213/253/210 214/238/210
f 192/233/211 191/231/211 206/237/211
f 200/234/212 199/232/212 214/238/212
f 192/233/213 207/239/213 208/241/213
f 201/236/547 200/234/547 215/240/547
f 194/221/215 193/235/215 208/241/215
f 202/220/548 201/236/548 216/242/548
f 195/222/549 194/221/549 209/243/549
f 195/222/550 210/245/550 211/249/550
f 188/224/551 203/247/551 204/250/551
f 196/226/222 211/249/222 212/251/222
f 189/227/552 204/250/552 205/252/552
f 198/230/224 197/228/224 212/251/224
f 210/245/225 209/243/225 224/254/225
f 210/245/228 225/255/228 226/260/228
f 203/247/229 218/257/229 219/261/229
f 211/249/230 226/260/230 227/262/230
f 204/250/231 219/261/231 220/263/231
f 213/253/232 212/251/232 227/262/232
f 205/252/233 220/263/233 221/265/233
f 213/253/234 228/264/234 229/266/234
f 207/239/235 206/237/235 221/265/235
f 215/240/236 214/238/236 229/266/236
f 207/239/237 222/267/237 223/269/237
f 216/242/238 215/240/238 230/268/238
f 209/243/239 208/241/239 223/269/239
f 217/244/240 216/242/240 231/270/240
f 228/264/241 243/287/241 244/271/241
f 222/267/242 221/265/242 236/272/242
f 230/268/243 229/266/243 244/271/243
f 222/267/244 237/273/244 238/275/244
f 231/270/245 230/268/245 245/274/245
f 224/254/246 223/269/246 238/275/246
f 231/270/553 246/276/553 247/278/553
f 225/255/554 224/254/554 239/277/554
f 225/255/555 240/279/555 241/283/555
f 219/261/252 218/257/252 233/281/252
f 226/260/253 241/283/253 242/285/253
f 219/261/254 234/284/254 235/286/254
f 228/264/255 227/262/255 242/285/255
f 220/263/256 235/286/256 236/272/256
f 240/279/259 255/304/259 256/292/259
f 234/284/556 233/281/556 248/289/556
f 241/283/261 256/292/261 257/294/261
f 235/286/262 234/284/262 249/293/262
f 243/287/263 242/285/263 257/294/263
f 235/286/264 250/295/264 251/297/264
f 243/287/265 258/296/265 259/298/265
f 237/273/266 236/272/266 251/297/266
f 245/274/267 244/271/267 259/298/267
f 237/273/268 252/299/268 253/301/268
f 245/274/269 260/300/269 261/302/269
f 239/277/270 238/275/270 253/301/270
f 246/276/557 261/302/557 262/291/557
f 240/279/272 239/277/272 254/303/272
f 252/299/273 251/297/273 266/305/273
f 260/300/274 259/298/274 274/307/274
f 252/299/275 267/306/275 268/309/275
f 261/302/276 260/300/276 275/308/276
f 254/303/277 253/301/277 268/309/277
f 261/302/278 276/310/278 277/312/278
f 255/304/558 254/303/558 269/311/558
f 255/304/559 270/313/559 271/317/559
f 249/293/283 248/289/283 263/315/283
f 256/292/284 271/317/284 272/319/284
f 249/293/285 264/318/285 265/320/285
f 258/296/286 257/294/286 272/319/286
f 250/295/287 265/320/287 266/305/287
f 258/296/288 273/321/288 274/307/288
f 270/313/560 285/335/560 286/322/560
f 263/315/290 278/337/290 279/323/290
f 271/317/291 286/322/291 287/324/291
f 264/318/561 279/323/561 280/325/561
f 273/321/293 272/319/293 287/324/293
f 265/320/294 280/325/294 281/327/294
f 273/321/295 288/326/295 289/328/295
f 267/306/296 266/305/296 281/327/296
f 275/308/297 274/307/297 289/328/297
f 267/306/298 282/329/298 283/331/298
f 275/308/562 290/330/562 291/332/562
f 269/311/300 268/309/300 283/331/300
f 276/310/563 291/332/563 292/334/563
f 270/313/564 269/311/564 284/333/564
f 290/330/305 289/328/305 304/339/305
f 282/329/306 297/355/306 298/341/306
f 290/330/307 305/340/307 306/342/307
f 284/333/308 283/331/308 298/341/308
f 292/334/309 291/332/309 306/342/309
f 285/335/310 284/333/310 299/343/310
f 285/335/313 300/345/313 301/349/313
f 278/337/314 293/347/314 294/350/314
f 286/322/315 301/349/315 302/351/315
f 280/325/316 279/323/316 294/350/316
f 288/326/317 287/324/317 302/351/317
f 280/325/318 295/352/318 296/354/318
f 288/326/565 303/353/565 304/339/565
f 282/329/566 281/327/566 296/354/566
f 301/349/321 317/372/321 318/356/321
f 295/352/322 294/350/322 310/357/322
f 303/353/323 302/351/323 318/356/323
f 295/352/324 311/358/324 312/360/324
f 303/353/325 319/359/325 320/361/325
f 297/355/326 296/354/326 312/360/326
f 305/340/327 304/339/327 320/361/327
f 297/355/328 313/362/328 314/364/328
f 305/340/329 321/363/329 322/365/329
f 299/343/330 298/341/330 314/364/330
f 306/342/331 322/365/331 323/367/331
f 300/345/567 299/343/567 315/366/567
f 300/345/568 316/368/568 317/372/568
f 294/350/336 293/347/336 309/370/336
f 321/363/569 336/389/569 337/373/569
f 315/366/338 314/364/338 329/374/338
f 323/367/570 322/365/570 337/373/570
f 316/368/571 315/366/571 330/375/571
f 316/368/572 331/377/572 332/381/572
f 309/370/573 324/379/573 325/382/573
f 317/372/345 332/381/345 333/383/345
f 310/357/574 325/382/574 326/384/574
f 319/359/347 318/356/347 333/383/347
f 311/358/348 326/384/348 327/386/348
f 319/359/349 334/385/349 335/387/349
f 313/362/350 312/360/350 327/386/350
f 321/363/351 320/361/351 335/387/351
f 313/362/352 328/388/352 329/374/352
f 326/384/575 325/382/575 340/390/575
f 334/385/354 333/383/354 348/392/354
f 326/384/355 341/391/355 342/394/355
f 334/385/356 349/393/356 350/395/356
f 328/388/357 327/386/357 342/394/357
f 336/389/358 335/387/358 350/395/358
f 328/388/359 343/396/359 344/398/359
f 336/389/576 351/397/576 352/399/576
f 330/375/361 329/374/361 344/398/361
f 338/376/362 337/373/362 352/399/362
f 331/377/363 330/375/363 345/400/363
f 331/377/366 346/402/366 347/406/366
f 324/379/367 339/404/367 340/390/367
f 332/381/368 347/406/368 348/392/368
f 345/400/369 344/398/369 359/407/369
f 353/401/370 352/399/370 367/409/370
f 346/402/371 345/400/371 360/408/371
f 346/402/374 361/411/374 362/415/374
f 339/404/375 354/413/375 355/416/375
f 347/406/376 362/415/376 363/417/376
f 341/391/377 340/390/377 355/416/377
f 349/393/378 348/392/378 363/417/378
f 341/391/577 356/418/577 357/420/577
f 349/393/380 364/419/380 365/421/380
f 343/396/381 342/394/381 357/420/381
f 351/397/578 350/395/578 365/421/578
f 343/396/383 358/422/383 359/407/383
f 351/397/384 366/423/384 367/409/384
f 364/424/385 363/454/385 378/425/385
f 356/427/579 371/455/579 372/428/579
f 364/424/387 379/426/387 380/430/387
f 358/432/388 357/429/388 372/428/388
f 366/434/580 365/431/580 380/430/580
f 358/432/390 373/433/390 374/436/390
f 366/434/391 381/435/391 382/438/391
f 360/440/392 359/437/392 374/436/392
f 367/439/393 382/438/393 383/442/393
f 361/444/394 360/440/394 375/441/394
f 361/444/397 376/445/397 377/450/397
f 355/452/398 354/446/398 369/448/398
f 362/451/399 377/450/399 378/425/399
f 356/427/400 355/452/400 370/453/400
f 382/438/401 397/472/401 398/456/401
f 376/445/581 375/441/581 390/457/581
f 376/445/582 391/458/582 392/462/582
f 370/453/406 369/448/406 384/460/406
f 377/450/407 392/462/407 393/464/407
f 371/455/583 370/453/583 385/463/583
f 379/426/409 378/425/409 393/464/409
f 371/455/410 386/465/410 387/467/410
f 379/426/411 394/466/411 395/468/411
f 373/433/412 372/428/412 387/467/412
f 381/435/413 380/430/413 395/468/413
f 373/433/414 388/469/414 389/471/414
f 381/435/584 396/470/584 397/472/584
f 375/441/416 374/436/416 389/471/416
f 386/465/417 401/488/417 402/473/417
f 394/466/418 409/489/418 410/474/418
f 388/469/419 387/467/419 402/473/419
f 396/470/420 395/468/420 410/474/420
f 388/469/421 403/475/421 404/477/421
f 396/470/585 411/476/585 412/478/585
f 390/457/423 389/471/423 404/477/423
f 398/456/586 397/472/586 412/478/586
f 391/458/587 390/457/587 405/479/587
f 391/458/588 406/481/588 407/485/588
f 384/460/589 399/483/589 400/486/589
f 392/462/430 407/485/430 408/487/430
f 386/465/590 385/463/590 400/486/590
f 394/466/432 393/464/432 408/487/432
f 406/481/591 405/479/591 420/490/591
f 406/481/592 421/491/592 422/496/592
f 399/483/437 414/493/437 415/497/437
f 407/485/438 422/496/438 423/498/438
f 401/488/439 400/486/439 415/497/439
f 409/489/440 408/487/440 423/498/440
f 401/488/441 416/499/441 417/501/441
f 409/489/442 424/500/442 425/502/442
f 403/475/443 402/473/443 417/501/443
f 411/476/444 410/474/444 425/502/444
f 403/475/445 418/503/445 419/505/445
f 411/476/446 426/504/446 427/506/446
f 405/479/447 404/477/447 419/505/447
f 412/478/593 427/506/593 428/495/593
f 424/500/449 439/523/449 440/507/449
f 418/503/450 417/501/450 432/508/450
f 426/504/451 425/502/451 440/507/451
f 418/503/452 433/509/452 434/511/452
f 426/504/453 441/510/453 442/512/453
f 420/490/454 419/505/454 434/511/454
f 428/495/455 427/506/455 442/512/455
f 421/491/456 420/490/456 435/513/456
f 421/491/459 436/515/459 437/519/459
f 414/493/460 429/517/460 430/520/460
f 422/496/461 437/519/461 438/521/461
f 416/499/462 415/497/462 430/520/462
f 424/500/463 423/498/463 438/521/463
f 416/499/464 431/522/464 432/508/464
f 436/515/594 451/539/594 452/526/594
f 430/520/595 429/517/595 444/527/595
f 437/519/468 452/526/468 453/529/468
f 431/522/596 430/520/596 445/528/596
f 439/523/470 438/521/470 453/529/470
f 431/522/471 446/530/471 447/532/471
f 439/523/472 454/531/472 455/533/472
f 433/509/473 432/508/473 447/532/473
f 441/510/474 440/507/474 455/533/474
f 433/509/475 448/534/475 449/536/475
f 441/510/597 456/535/597 457/537/597
f 435/513/477 434/511/477 449/536/477
f 442/512/598 457/537/598 458/525/598
f 436/515/599 435/513/599 450/538/599
f 456/535/481 455/533/481 470/541/481
f 448/534/482 463/557/482 464/543/482
f 456/535/600 471/542/600 472/544/600
f 450/538/484 449/536/484 464/543/484
f 458/525/485 457/537/485 472/544/485
f 451/539/486 450/538/486 465/545/486
f 451/539/489 466/547/489 467/551/489
f 444/527/490 459/549/490 460/552/490
f 452/526/491 467/551/491 468/553/491
f 446/530/601 445/528/601 460/552/601
f 454/531/493 453/529/493 468/553/493
f 446/530/494 461/554/494 462/556/494
f 454/531/495 469/555/495 470/541/495
f 448/534/496 447/532/496 462/556/496
f 459/549/497 474/30/497 475/4/497
f 467/551/498 5/3/498 478/8/498
f 461/554/499 460/552/499 475/4/499
f 468/553/500 478/8/500 6/12/500
f 462/556/602 461/554/602 1/9/602
f 469/555/502 6/12/502 479/15/502
f 463/557/503 462/556/503 476/13/503
f 471/542/603 470/541/603 479/15/603
f 464/543/505 463/557/505 2/18/505
f 471/542/506 480/20/506 481/24/506
f 465/545/507 464/543/507 477/21/507
f 472/544/604 481/24/604 482/28/604
f 466/547/509 465/545/509 3/25/509
f 466/547/512 4/1/512 5/3/512
o LWing
v -2.193750 0.000000 0.000000
v -0.506250 -0.420454 0.000000
v -0.506250 0.000000 1.193243
v -0.506250 -0.000000 -1.193243
v -0.506250 0.420454 -0.000000
vn -0.2288 -0.9182 -0.3235
vn -0.2288 -0.9182 0.3235
vn -0.2288 0.9182 0.3235
vn -0.2288 0.9182 -0.3235
vn 1.0000 -0.0000 -0.0000
vt 0.125000 0.500000
vt 0.375000 0.500000
vt 0.375000 0.750000
vt 0.625000 0.750000
vt 0.375000 1.000000
vt 0.625000 0.500000
vt 0.875000 0.750000
vt 0.625000 0.250000
s 0
usemtl LWingMaterial
f 483/560/605 486/561/605 484/562/605
f 484/562/606 485/563/606 483/564/606
f 487/565/607 483/566/607 485/563/607
f 483/567/608 487/565/608 486/561/608
f 487/565/609 485/563/609 484/562/609
f 487/565/609 484/562/609 486/561/609
o RWing
v 2.193750 0.000000 0.000000
v 0.506250 0.000000 1.193243
v 0.506250 0.420454 -0.000000
v 0.506250 -0.000000 -1.193243
v 0.506250 -0.420454 0.000000
vn 0.2288 -0.9182 0.3235
vn 0.2288 0.9182 0.3235
vn 0.2288 0.9182 -0.3235
vn 0.2288 -0.9182 -0.3235
vn -1.0000 -0.0000 -0.0000
vt 0.625000 0.500000
vt 0.875000 0.750000
vt 0.625000 0.750000
vt 0.375000 0.750000
vt 0.375000 1.000000
vt 0.125000 0.500000
vt 0.375000 0.500000
vt 0.625000 0.250000
s 0
usemtl RWingMaterial
f 492/568/610 488/569/610 489/570/610
f 490/571/611 489/570/611 488/572/611
f 488/573/612 491/574/612 490/571/612
f 488/575/613 492/568/613 491/574/613
f 492/568/614 489/570/614 490/571/614
f 492/568/614 490/571/614 491/574/614
