# Blender 4.1.1
# www.blender.org
mtllib LWing.mtl
o LWing
v 0.843750 0.000000 0.000000
v -0.843750 -0.420454 0.000000
v -0.843750 -0.000000 -1.193243
v -0.843750 -0.000000 1.193243
v -0.843750 0.420454 0.000000
vn 0.2288 0.9182 0.3235
vn -1.0000 -0.0000 -0.0000
vn 0.2288 -0.9182 -0.3235
vn 0.2288 -0.9182 0.3235
vn 0.2288 0.9182 -0.3235
vt 0.625000 0.250000
vt 0.625000 0.500000
vt 0.375000 0.500000
vt 0.375000 0.750000
vt 0.625000 0.750000
vt 0.375000 1.000000
vt 0.125000 0.500000
vt 0.875000 0.750000
s 0
usemtl LWingMaterial
f 1/1/1 5/2/1 4/3/1
f 5/2/2 2/4/2 4/3/2
f 2/4/3 3/5/3 1/6/3
f 1/7/4 4/3/4 2/4/4
f 5/2/5 1/8/5 3/5/5
f 5/2/2 3/5/2 2/4/2
